<svg width="28" height="14" viewBox="0 0 28 14" fill="none" xmlns="http://www.w3.org/2000/svg">
<g clip-path="url(#clip0_838_5)">
<rect width="28" height="14" fill="white"/>
<mask id="path-1-outside-1_838_5" maskUnits="userSpaceOnUse" x="-15" y="0" width="29" height="14" fill="black">
<rect fill="white" x="-15" width="29" height="14"/>
<path d="M-5.95 0.999999L-6.45 5.8L-1.65 4.45L-1.3 6.75L-5.9 7.125L-2.925 11.075L-5.075 12.25L-7.2 7.875L-9.125 12.25L-11.35 11.075L-8.425 7.125L-12.975 6.75L-12.625 4.45L-7.875 5.8L-8.4 0.999999H-5.95ZM7.81953 0.999999L7.31953 5.8L12.1195 4.45L12.4695 6.75L7.86953 7.125L10.8445 11.075L8.69453 12.25L6.56953 7.875L4.64453 12.25L2.41953 11.075L5.34453 7.125L0.794531 6.75L1.14453 4.45L5.89453 5.8L5.36953 0.999999H7.81953Z"/>
</mask>
<path d="M-5.95 0.999999L-6.45 5.8L-1.65 4.45L-1.3 6.75L-5.9 7.125L-2.925 11.075L-5.075 12.25L-7.2 7.875L-9.125 12.25L-11.35 11.075L-8.425 7.125L-12.975 6.75L-12.625 4.45L-7.875 5.8L-8.4 0.999999H-5.95ZM7.81953 0.999999L7.31953 5.8L12.1195 4.45L12.4695 6.75L7.86953 7.125L10.8445 11.075L8.69453 12.25L6.56953 7.875L4.64453 12.25L2.41953 11.075L5.34453 7.125L0.794531 6.75L1.14453 4.45L5.89453 5.8L5.36953 0.999999H7.81953Z" fill="#0057FF"/>
<path d="M-5.95 0.999999L-4.95538 1.1036L-4.84042 -1.2517e-06H-5.95V0.999999ZM-6.45 5.8L-7.44462 5.69639L-7.59723 7.16146L-6.17925 6.76265L-6.45 5.8ZM-1.65 4.45L-0.661381 4.29956L-0.831592 3.18102L-1.92075 3.48735L-1.65 4.45ZM-1.3 6.75L-1.21875 7.74669L-0.150074 7.65957L-0.311381 6.59956L-1.3 6.75ZM-5.9 7.125L-5.98125 6.12831L-7.79143 6.27587L-6.69878 7.72662L-5.9 7.125ZM-2.925 11.075L-2.44543 11.9525L-1.43011 11.3976L-2.12621 10.4734L-2.925 11.075ZM-5.075 12.25L-5.97451 12.6869L-5.51611 13.6307L-4.59543 13.1275L-5.075 12.25ZM-7.2 7.875L-6.30049 7.4381L-7.24483 5.49388L-8.11531 7.47226L-7.2 7.875ZM-9.125 12.25L-9.59197 13.1343L-8.64224 13.6358L-8.20968 12.6527L-9.125 12.25ZM-11.35 11.075L-12.1536 10.4799L-12.8465 11.4156L-11.817 11.9593L-11.35 11.075ZM-8.425 7.125L-7.62135 7.7201L-6.55197 6.27598L-8.34286 6.12838L-8.425 7.125ZM-12.975 6.75L-13.9636 6.59956L-14.1248 7.65863L-13.0571 7.74662L-12.975 6.75ZM-12.625 4.45L-12.3516 3.48809L-13.4429 3.17793L-13.6136 4.29956L-12.625 4.45ZM-7.875 5.8L-8.14838 6.7619L-6.71941 7.16803L-6.88093 5.69127L-7.875 5.8ZM-8.4 0.999999V-1.2517e-06H-9.51534L-9.39407 1.10873L-8.4 0.999999ZM-6.94462 0.896393L-7.44462 5.69639L-5.45538 5.90361L-4.95538 1.1036L-6.94462 0.896393ZM-6.17925 6.76265L-1.37925 5.41265L-1.92075 3.48735L-6.72075 4.83735L-6.17925 6.76265ZM-2.63862 4.60044L-2.28862 6.90044L-0.311381 6.59956L-0.661381 4.29956L-2.63862 4.60044ZM-1.38125 5.75331L-5.98125 6.12831L-5.81875 8.12169L-1.21875 7.74669L-1.38125 5.75331ZM-6.69878 7.72662L-3.72378 11.6766L-2.12621 10.4734L-5.10121 6.52338L-6.69878 7.72662ZM-3.40457 10.1975L-5.55457 11.3725L-4.59543 13.1275L-2.44543 11.9525L-3.40457 10.1975ZM-4.17549 11.8131L-6.30049 7.4381L-8.09951 8.3119L-5.97451 12.6869L-4.17549 11.8131ZM-8.11531 7.47226L-10.0403 11.8473L-8.20968 12.6527L-6.28468 8.27774L-8.11531 7.47226ZM-8.65803 11.3657L-10.883 10.1907L-11.817 11.9593L-9.59197 13.1343L-8.65803 11.3657ZM-10.5464 11.6701L-7.62135 7.7201L-9.22865 6.52989L-12.1536 10.4799L-10.5464 11.6701ZM-8.34286 6.12838L-12.8929 5.75338L-13.0571 7.74662L-8.50714 8.12162L-8.34286 6.12838ZM-11.9864 6.90044L-11.6364 4.60044L-13.6136 4.29956L-13.9636 6.59956L-11.9864 6.90044ZM-12.8984 5.4119L-8.14838 6.7619L-7.60162 4.83809L-12.3516 3.48809L-12.8984 5.4119ZM-6.88093 5.69127L-7.40593 0.891272L-9.39407 1.10873L-8.86907 5.90873L-6.88093 5.69127ZM-8.4 2H-5.95V-1.2517e-06H-8.4V2ZM7.81953 0.999999L8.81415 1.1036L8.92911 -1.2517e-06H7.81953V0.999999ZM7.31953 5.8L6.32491 5.69639L6.1723 7.16146L7.59028 6.76265L7.31953 5.8ZM12.1195 4.45L13.1082 4.29956L12.9379 3.18102L11.8488 3.48735L12.1195 4.45ZM12.4695 6.75L12.5508 7.74669L13.6195 7.65957L13.4582 6.59956L12.4695 6.75ZM7.86953 7.125L7.78828 6.12831L5.9781 6.27587L7.07075 7.72662L7.86953 7.125ZM10.8445 11.075L11.3241 11.9525L12.3394 11.3976L11.6433 10.4734L10.8445 11.075ZM8.69453 12.25L7.79502 12.6869L8.25342 13.6307L9.1741 13.1275L8.69453 12.25ZM6.56953 7.875L7.46904 7.4381L6.52471 5.49388L5.65422 7.47226L6.56953 7.875ZM4.64453 12.25L4.17756 13.1343L5.12729 13.6358L5.55985 12.6527L4.64453 12.25ZM2.41953 11.075L1.61588 10.4799L0.923006 11.4156L1.95256 11.9593L2.41953 11.075ZM5.34453 7.125L6.14818 7.7201L7.21756 6.27598L5.42667 6.12838L5.34453 7.125ZM0.794531 6.75L-0.194088 6.59956L-0.35525 7.65863L0.712392 7.74662L0.794531 6.75ZM1.14453 4.45L1.41791 3.48809L0.326595 3.17793L0.155913 4.29956L1.14453 4.45ZM5.89453 5.8L5.62115 6.7619L7.05012 7.16803L6.8886 5.69127L5.89453 5.8ZM5.36953 0.999999V-1.2517e-06H4.25419L4.37546 1.10873L5.36953 0.999999ZM6.82491 0.896393L6.32491 5.69639L8.31415 5.90361L8.81415 1.1036L6.82491 0.896393ZM7.59028 6.76265L12.3903 5.41265L11.8488 3.48735L7.04879 4.83735L7.59028 6.76265ZM11.1309 4.60044L11.4809 6.90044L13.4582 6.59956L13.1082 4.29956L11.1309 4.60044ZM12.3883 5.75331L7.78828 6.12831L7.95078 8.12169L12.5508 7.74669L12.3883 5.75331ZM7.07075 7.72662L10.0457 11.6766L11.6433 10.4734L8.66832 6.52338L7.07075 7.72662ZM10.365 10.1975L8.21496 11.3725L9.1741 13.1275L11.3241 11.9525L10.365 10.1975ZM9.59404 11.8131L7.46904 7.4381L5.67002 8.3119L7.79502 12.6869L9.59404 11.8131ZM5.65422 7.47226L3.72922 11.8473L5.55985 12.6527L7.48485 8.27774L5.65422 7.47226ZM5.11151 11.3657L2.88651 10.1907L1.95256 11.9593L4.17756 13.1343L5.11151 11.3657ZM3.22318 11.6701L6.14818 7.7201L4.54088 6.52989L1.61588 10.4799L3.22318 11.6701ZM5.42667 6.12838L0.87667 5.75338L0.712392 7.74662L5.26239 8.12162L5.42667 6.12838ZM1.78315 6.90044L2.13315 4.60044L0.155913 4.29956L-0.194088 6.59956L1.78315 6.90044ZM0.871148 5.4119L5.62115 6.7619L6.16792 4.83809L1.41791 3.48809L0.871148 5.4119ZM6.8886 5.69127L6.3636 0.891272L4.37546 1.10873L4.90046 5.90873L6.8886 5.69127ZM5.36953 2H7.81953V-1.2517e-06H5.36953V2Z" fill="#0057FF" mask="url(#path-1-outside-1_838_5)"/>
</g>
<defs>
<clipPath id="clip0_838_5">
<rect width="28" height="14" fill="white"/>
</clipPath>
</defs>
</svg>
