<svg width="70" height="61" viewBox="0 0 70 61" fill="none" xmlns="http://www.w3.org/2000/svg">
<path fill-rule="evenodd" clip-rule="evenodd" d="M33.2126 0.0273831C32.8521 0.0607392 32.3016 0.102746 31.9892 0.120671C31.6769 0.138674 31.323 0.186058 31.2028 0.225961C31.0827 0.265863 30.6993 0.289322 30.3508 0.278099C30.0024 0.266877 29.7173 0.289166 29.7173 0.327666C29.7173 0.366088 29.6289 0.391728 29.5207 0.384636C29.2887 0.369283 28.2135 0.539726 27.8386 0.651329C27.5812 0.727939 26.471 0.902356 25.523 1.01513C25.2587 1.04654 24.8736 1.15315 24.6672 1.25205C24.3979 1.38111 24.208 1.41961 23.994 1.38867C23.7779 1.35742 23.6371 1.3868 23.4816 1.49591C23.3638 1.57867 23.2134 1.64632 23.1476 1.64632C23.0817 1.64632 22.9398 1.70134 22.8321 1.76868C22.7244 1.83594 22.5298 1.90818 22.3997 1.92922C22.2696 1.95027 21.9852 2.04792 21.7678 2.1462C20.8307 2.56969 19.8889 2.89998 19.319 3.00488C19.1988 3.02701 18.9826 3.1383 18.8384 3.25217C18.5804 3.45597 17.7558 3.82577 17.547 3.8313C17.4884 3.83286 17.1878 4.00548 16.8794 4.21489C16.5709 4.42438 16.1123 4.68874 15.8603 4.80245C15.6082 4.91623 15.3335 5.07677 15.2498 5.15923C15.1661 5.24176 15.0495 5.30925 14.9907 5.30925C14.9318 5.30925 14.7256 5.44603 14.5324 5.6132C14.3393 5.78045 14.0986 5.9406 13.9976 5.96921C13.8966 5.99781 13.814 6.05151 13.814 6.0886C13.814 6.1257 13.7402 6.1769 13.6501 6.20239C13.5601 6.22795 13.2775 6.43869 13.0221 6.67085C12.7669 6.90302 12.5317 7.07845 12.4996 7.06076C12.4674 7.04307 12.2693 7.15904 12.0591 7.31841C11.849 7.47787 11.6172 7.65034 11.544 7.70177C11.3469 7.84026 10.8448 8.28901 9.8516 9.21441C8.65964 10.3251 8.48374 10.503 8.48374 10.598C8.48374 10.6426 8.42825 10.707 8.36035 10.7413C8.29255 10.7756 8.07296 10.9878 7.87233 11.2128C7.67179 11.4378 7.4619 11.6245 7.40589 11.6277C7.31606 11.6328 6.13747 13.1371 6.04476 13.365C6.02501 13.4136 5.90075 13.5411 5.76863 13.6483C5.63643 13.7554 5.45196 13.9834 5.35855 14.1548C5.06058 14.7019 4.62945 15.398 4.51384 15.5187C4.45224 15.583 4.16694 16.074 3.8798 16.6098C3.1278 18.013 3.00949 18.2557 2.93985 18.5387C2.90551 18.678 2.84128 18.792 2.79707 18.792C2.75276 18.792 2.71659 18.86 2.71659 18.9432C2.71659 19.0265 2.68295 19.1131 2.64188 19.1357C2.60081 19.1583 2.47847 19.4147 2.37003 19.7053C2.26159 19.996 2.13795 20.267 2.09522 20.3078C2.05249 20.3485 2.01754 20.4421 2.01754 20.5156C2.01754 20.5892 1.88306 21.0119 1.7187 21.4548C1.23059 22.7699 1.10345 23.1978 0.969928 23.9746C0.925714 24.2318 0.808273 24.7929 0.708921 25.2216C0.609569 25.6502 0.504188 26.1412 0.47474 26.3127C0.445205 26.4841 0.391378 26.6595 0.355115 26.7023C0.28521 26.7849 0.19949 27.8571 0.133954 29.469C0.112196 30.0048 0.0684182 30.5309 0.0367862 30.638C0.00506693 30.7452 -0.00882667 30.868 0.00585335 30.9108C0.0983899 31.1803 0.192412 31.8722 0.311425 33.1608C0.386135 33.9696 0.470458 34.6648 0.498682 34.7055C0.544208 34.7713 0.662871 35.4621 0.745097 36.1406C0.761262 36.2737 0.813167 36.449 0.860527 36.5303C0.907888 36.6115 0.974298 36.8533 1.00811 37.0677C1.07339 37.4816 1.26414 38.2666 1.42466 38.7822C1.47805 38.9537 1.52829 39.1641 1.53624 39.2498C1.54428 39.3356 1.69877 39.6863 1.87974 40.0292C2.06062 40.3721 2.2609 40.8967 2.32486 41.1948C2.38935 41.4958 2.50233 41.7771 2.57879 41.827C2.65463 41.8764 2.71659 41.9935 2.71659 42.0874C2.71659 42.1811 2.79523 42.403 2.89135 42.5805C2.98747 42.7579 3.06611 42.9599 3.06611 43.0294C3.06611 43.0988 3.22279 43.4341 3.41433 43.7746C3.60587 44.115 3.76315 44.4506 3.76385 44.5204C3.76455 44.5902 3.82414 44.6908 3.89623 44.7442C3.96832 44.7976 4.0273 44.8752 4.0273 44.9169C4.0273 44.9584 4.10595 45.0816 4.20207 45.1906C4.29819 45.2996 4.37683 45.4457 4.37683 45.5154C4.37683 45.5851 4.47513 45.7367 4.59528 45.8522C4.71543 45.9677 4.81373 46.0974 4.81373 46.1403C4.81373 46.1832 5.02231 46.4039 5.27712 46.6308C5.53201 46.8577 5.89341 47.2537 6.08015 47.5109C6.26697 47.7681 6.49093 48.0413 6.57796 48.118C6.6649 48.1946 6.73612 48.3046 6.73612 48.3624C6.73612 48.4645 7.20168 48.9661 7.74843 49.453C7.89662 49.5851 8.15064 49.8509 8.31282 50.0438C8.475 50.2367 8.89434 50.6428 9.24474 50.9462C9.59514 51.2497 9.88183 51.5542 9.88183 51.6228C9.88183 51.6916 10.0096 51.8278 10.1658 51.9256C10.322 52.0234 10.4624 52.1296 10.4779 52.1618C10.5187 52.2467 11.4501 53.0833 11.5039 53.0833C11.5699 53.0833 11.7701 53.2333 12.2058 53.6093C12.4169 53.7914 12.6273 53.9405 12.6732 53.9405C12.7191 53.9405 12.7885 53.9911 12.8273 54.053C12.8662 54.1149 13.1237 54.3097 13.3996 54.4859C13.6756 54.6622 13.9014 54.8395 13.9014 54.88C13.9014 54.9206 13.9529 54.9537 14.0159 54.9537C14.079 54.9537 14.2087 55.0186 14.3042 55.0979C14.5255 55.2819 15.8146 56.0448 15.904 56.0448C15.9411 56.0448 16.0426 56.1149 16.1296 56.2006C16.2165 56.2864 16.3236 56.3565 16.3674 56.3565C16.4112 56.3565 16.5723 56.4391 16.7253 56.5401C17.0914 56.7817 18.5905 57.5255 18.7114 57.5255C18.7634 57.5255 19.0208 57.6132 19.2835 57.7204C19.5462 57.8275 19.7778 57.9152 19.7984 57.9152C19.8188 57.9152 20.0279 58.0164 20.2631 58.14C20.4981 58.2636 20.785 58.3886 20.9004 58.4177C21.0158 58.4467 21.1889 58.5003 21.2851 58.5367C21.3812 58.5732 21.6958 58.6832 21.9841 58.7812C22.2725 58.8793 22.5458 58.9876 22.5914 59.0219C22.6371 59.0562 22.757 59.0842 22.8579 59.0842C22.9588 59.0842 23.0787 59.1125 23.1244 59.1471C23.17 59.1817 23.4827 59.2923 23.8191 59.3928C24.1555 59.4934 24.4701 59.6014 24.5182 59.6329C24.5662 59.6644 24.773 59.7147 24.9777 59.7448C25.1823 59.775 25.5553 59.8665 25.8065 59.9484C26.0577 60.0304 26.3509 60.0974 26.4579 60.0974C26.565 60.0974 26.9785 60.1661 27.3767 60.2502C27.7749 60.3342 28.4547 60.4542 28.8872 60.5169C29.9637 60.6728 30.1747 60.7169 30.3044 60.813C30.3843 60.8721 30.4533 60.8685 30.5452 60.8004C30.6919 60.6919 31.4641 60.743 32.2514 60.9135C32.9088 61.0558 35.9805 61.014 36.8826 60.8504C37.243 60.785 37.767 60.7316 38.047 60.7318C38.8393 60.7322 39.6808 60.6428 40.1582 60.5077C40.3979 60.4398 40.7518 60.373 40.9447 60.3593C41.1375 60.3455 41.4723 60.298 41.6885 60.2536C41.9048 60.2093 42.1604 60.1618 42.2565 60.1479C42.3526 60.1341 42.5689 60.086 42.7371 60.041C42.9053 59.9961 43.2789 59.9138 43.5672 59.8579C43.8556 59.8021 44.2291 59.6807 44.3973 59.5882C44.5656 59.4956 44.9784 59.3739 45.3148 59.3176C45.6513 59.2612 46.1973 59.1156 46.5284 58.9938C46.8594 58.8721 47.1706 58.7725 47.2199 58.7725C47.3393 58.7725 48.6753 58.3012 48.8975 58.1808C48.9936 58.1287 49.2362 58.0625 49.4368 58.0337C49.6372 58.0051 49.8198 57.9384 49.8425 57.8858C49.8651 57.8331 50.2319 57.6357 50.6576 57.447C51.0832 57.2584 51.5077 57.0411 51.601 56.9641C51.6941 56.8871 51.8177 56.8241 51.8756 56.8241C51.9334 56.8241 51.9997 56.7802 52.0228 56.7264C52.046 56.6727 52.2173 56.581 52.4035 56.5226C52.5898 56.4643 52.8614 56.3159 53.0071 56.1929C53.2763 55.9656 53.5119 55.8181 55.1992 54.8198C56.1679 54.2467 56.6211 53.8895 58.8496 51.9424C59.5433 51.3365 60.1437 50.828 60.1839 50.8124C60.2241 50.7969 60.411 50.5738 60.5991 50.3166C61 49.7685 61.5009 49.2156 62.0437 48.7217C62.2573 48.5273 62.4409 48.3226 62.4516 48.267C62.475 48.1448 62.8631 47.6748 63.2009 47.3597C63.3359 47.2337 63.4464 47.0999 63.4464 47.0622C63.4464 46.9949 63.8026 46.5445 64.0581 46.2887C64.2321 46.1146 64.6889 45.2725 64.8007 44.9196C64.8313 44.8231 64.9073 44.7442 64.9696 44.7442C65.0677 44.7442 65.3688 44.1928 65.3688 44.0133C65.3688 43.9784 65.442 43.8569 65.5314 43.7431C65.6209 43.6293 65.7423 43.396 65.8011 43.2245C65.9044 42.9238 66.0758 42.572 66.2377 42.3283C66.4021 42.081 66.5958 41.6283 66.6437 41.3798C66.6913 41.1325 66.728 41.0371 66.9831 40.4968C67.0857 40.2794 67.3047 39.6358 67.593 38.7043C67.6593 38.49 67.7657 38.1568 67.8294 37.9639C67.8931 37.771 67.9324 37.5629 67.9166 37.5015C67.885 37.3789 68.1869 36.1957 68.4021 35.5985C68.4771 35.3905 68.5507 34.9872 68.5657 34.7023C68.5808 34.4173 68.6182 33.8334 68.6487 33.4047C68.8446 30.6617 68.8669 30.1736 68.8111 29.8587C68.7769 29.6658 68.7412 29.2625 68.7317 28.9625C68.7222 28.6624 68.6658 28.1363 68.6063 27.7934C68.5467 27.4505 68.4871 26.942 68.4737 26.6634C68.4603 26.3848 68.3835 25.984 68.303 25.7728C68.2224 25.5616 68.1671 25.3161 68.1799 25.2273C68.1928 25.1384 68.175 25.0252 68.1404 24.9756C68.1057 24.9261 68.0416 24.6806 67.9978 24.4301C67.9229 24.0017 67.6964 23.1823 67.581 22.9225C67.5524 22.8582 67.5212 22.753 67.5116 22.6887C67.4721 22.4256 67.3515 22.0239 67.2783 21.9119C67.1312 21.6866 66.8359 20.8572 66.792 20.5455C66.7678 20.374 66.7014 20.1812 66.6445 20.1169C66.5875 20.0526 66.4987 19.9123 66.4472 19.8051C66.002 18.8802 65.8053 18.421 65.8055 18.3072C65.8057 18.1469 65.5051 17.6478 65.2729 17.4231C65.1815 17.3346 65.1067 17.1758 65.1067 17.0702C65.1067 16.9646 65.0545 16.8091 64.9908 16.7246C64.9271 16.64 64.7861 16.3719 64.6776 16.1289C64.5691 15.8858 64.4057 15.6266 64.3144 15.553C64.2231 15.4793 63.9889 15.1289 63.7937 14.7742C63.5985 14.4195 63.3816 14.087 63.3116 14.0351C63.2415 13.9833 63.1843 13.9075 63.1843 13.8666C63.1843 13.8257 63.0663 13.6869 62.9221 13.5583C62.778 13.4297 62.6582 13.2658 62.6561 13.1941C62.6539 13.1224 62.295 12.7306 61.8586 12.3234C61.4221 11.9162 61.0122 11.4726 60.9476 11.3377C60.8241 11.0799 60.116 10.375 59.9805 10.375C59.937 10.375 59.836 10.2785 59.756 10.1607C59.6233 9.96531 58.8485 9.24324 57.8175 8.35409C57.5973 8.16416 57.4171 7.96246 57.4171 7.90596C57.4171 7.84946 57.3858 7.80317 57.3475 7.80317C57.2688 7.80317 57.0183 7.64145 56.5543 7.29113C56.3801 7.15958 56.0916 6.95477 55.9132 6.83607C55.7349 6.71738 55.5651 6.55325 55.536 6.47134C55.5068 6.38943 55.4437 6.32241 55.3957 6.32241C55.3476 6.32241 55.1795 6.23473 55.0219 6.12757C54.8644 6.02041 54.6962 5.93273 54.6481 5.93273C54.6 5.93273 54.4894 5.86259 54.4025 5.77686C54.3155 5.69113 54.1741 5.62099 54.0883 5.62099C54.0024 5.62099 53.9079 5.58592 53.8782 5.54306C53.8485 5.50019 53.7282 5.46512 53.6109 5.46512C53.4879 5.46512 53.3976 5.41961 53.3976 5.35765C53.3976 5.29858 53.2796 5.20661 53.1355 5.15338C52.9913 5.10016 52.8733 5.0322 52.8733 5.00243C52.8733 4.97265 52.7061 4.86596 52.5019 4.76527C52.2977 4.66466 51.9873 4.48283 51.8122 4.36126C51.637 4.23968 51.4559 4.14023 51.4097 4.14023C51.3634 4.14023 51.1453 4.01749 50.9251 3.86746C50.7048 3.71744 50.4861 3.59469 50.439 3.59469C50.392 3.59469 50.1579 3.50701 49.9187 3.39985C49.6794 3.29269 49.4451 3.20502 49.3979 3.20502C49.3507 3.20502 49.2663 3.15584 49.2104 3.09575C49.1545 3.03566 49.0053 2.96334 48.8789 2.93505C48.7525 2.90676 48.5579 2.81963 48.4464 2.74138C48.3348 2.66314 48.1011 2.5753 47.9268 2.54616C47.7524 2.51693 47.4081 2.41234 47.1614 2.31368C46.9148 2.21509 46.5956 2.10949 46.4522 2.07909C46.3087 2.0487 45.9832 1.93889 45.7287 1.83508C45.4742 1.73127 45.1895 1.64632 45.096 1.64632C45.0026 1.64632 44.6293 1.54111 44.2663 1.41252C43.9033 1.28392 43.4874 1.17871 43.3421 1.17871C43.1968 1.17871 42.9718 1.13094 42.842 1.07257C42.7122 1.01419 42.3229 0.946312 41.977 0.921606C41.6309 0.896901 41.2757 0.842269 41.1876 0.800184C41.0994 0.758099 40.8517 0.701207 40.637 0.673696C40.4224 0.646263 40.0305 0.569731 39.7662 0.50372C39.3199 0.392274 39.0255 0.360788 37.7564 0.288854C37.4921 0.273891 37.1578 0.240846 37.0136 0.215517C36.8695 0.190189 36.26 0.147636 35.6592 0.121061C35.0585 0.0944849 34.4097 0.0488932 34.2175 0.0197456C34.0252 -0.0093241 33.573 -0.005895 33.2126 0.0273831ZM36.9166 2.23083C36.7526 2.34251 36.6378 2.89156 36.7211 3.16605C36.7601 3.29464 36.7542 3.6964 36.7081 4.05887C36.6175 4.77034 36.6923 5.17295 36.9858 5.55506C37.0732 5.66885 37.1447 5.79666 37.1447 5.83898C37.1447 5.88137 37.1949 5.9332 37.2562 5.95416C37.3175 5.97521 37.4408 6.21564 37.5301 6.48856C37.6194 6.76157 37.761 7.09006 37.8448 7.21866C37.9286 7.34725 38.1248 7.66288 38.2809 7.92007C38.4369 8.17725 38.6285 8.45782 38.7067 8.54355C38.9104 8.76722 39.1395 9.14146 39.327 9.5567C39.385 9.68529 39.5082 9.92112 39.6007 10.0808C39.7939 10.4142 39.7572 10.8549 39.5125 11.1443C39.2016 11.5119 38.038 11.4021 37.4222 10.9471C37.1669 10.7585 36.8527 10.6226 36.3363 10.4777C36.0362 10.3934 35.8929 10.9903 36.0592 11.6315C36.0899 11.7499 36.0576 11.93 35.9823 12.0601C35.8717 12.2511 35.8685 12.3681 35.961 12.8483C36.0207 13.1585 36.0461 13.4332 36.0173 13.4588C35.913 13.5519 35.8925 16.4146 35.9949 16.5911C36.0409 16.6706 36.0418 16.9363 35.997 17.2333C35.9323 17.6618 35.8438 18.8679 35.8255 19.5713C35.8185 19.8409 35.9099 22.714 35.9704 24.1305C35.9978 24.7735 36.0155 25.3521 36.0095 25.4164C36.0034 25.4807 35.9876 26.054 35.9743 26.6903C35.951 27.8084 35.9565 27.85 36.1377 27.9237C36.2885 27.9849 36.4615 27.9361 37.019 27.6751C37.4006 27.4966 38.03 27.1608 38.4178 26.929C38.8056 26.6972 39.1488 26.5075 39.1806 26.5075C39.2123 26.5075 39.3995 26.3515 39.5966 26.1608C39.9711 25.7984 40.2732 25.6774 40.858 25.6558C41.0822 25.6474 41.2854 25.5798 41.426 25.4667C41.7093 25.2387 42.268 24.9282 42.6279 24.7985C42.7841 24.7421 42.9119 24.6653 42.9119 24.6276C42.9119 24.5899 42.9582 24.5591 43.0147 24.5591C43.1633 24.5591 44.31 23.8535 44.31 23.7621C44.31 23.7198 44.37 23.7058 44.4434 23.7308C44.6244 23.7928 45.3929 23.2902 45.6216 22.9602C45.7223 22.8148 45.9992 22.5685 46.237 22.4129C46.7394 22.0839 46.7701 21.9458 46.4568 21.4203C46.1845 20.9635 45.6554 20.5305 45.2955 20.4698C44.9366 20.4093 44.3566 19.9343 44.4309 19.7616C44.4605 19.6927 44.4847 19.5366 44.4847 19.4146C44.4847 18.9709 45.6043 18.5132 46.5933 18.5526C47.2369 18.5782 47.7593 18.5749 49.0285 18.5371C49.9228 18.5105 50.502 18.5354 52.0432 18.6669C52.6143 18.7156 53.071 18.5903 53.4207 18.2893C53.6869 18.0599 54.8791 17.4671 55.074 17.4671C55.1233 17.4671 55.3383 17.3619 55.552 17.2333C55.7656 17.1047 55.9679 16.9981 56.0015 16.9963C56.0352 16.9946 56.1989 16.8893 56.3652 16.7625C56.5316 16.6357 56.7154 16.5319 56.7736 16.5319C56.8318 16.5319 56.9963 16.4442 57.1392 16.3369C57.282 16.2297 57.7864 15.9636 58.26 15.7456C58.7336 15.5276 59.18 15.2908 59.2521 15.2195C59.3755 15.0975 59.6951 14.945 60.2264 14.7548C60.3779 14.7005 60.4947 14.573 60.5639 14.3858C60.6682 14.1037 60.6643 14.095 60.2667 13.735C60.0451 13.5343 59.8638 13.3396 59.8638 13.3022C59.8638 13.2649 59.7557 13.1084 59.6235 12.9545C59.266 12.5382 58.99 12.1679 58.99 12.1045C58.99 12.0737 58.7937 11.8813 58.5539 11.6768C58.1358 11.3207 57.7752 10.8462 57.9173 10.8393C57.9546 10.8376 57.8606 10.7762 57.7084 10.703C57.5561 10.6298 56.9912 10.1928 56.4531 9.73205C55.915 9.2713 55.4234 8.89425 55.3609 8.89425C55.2983 8.89425 55.2341 8.86191 55.218 8.82247C55.1734 8.71227 53.6587 7.72523 53.5343 7.72523C53.4741 7.72523 53.3563 7.65782 53.2725 7.57536C53.1889 7.49291 52.9682 7.33135 52.7821 7.21624L52.4437 7.00714L52.1548 7.16636C51.8295 7.34569 51.5837 7.61745 51.3113 8.0987C51.2092 8.27904 51.0461 8.56693 50.9489 8.73838C50.8517 8.90984 50.7337 9.05012 50.6868 9.05012C50.6398 9.05012 50.6014 9.09875 50.6014 9.15814C50.6014 9.27146 50.4762 9.50269 50.2378 9.82947C50.1596 9.93663 50.002 10.1821 49.8875 10.375C49.7729 10.5679 49.471 11.004 49.2163 11.3442C48.9617 11.6844 48.679 12.0926 48.5881 12.2514C48.4974 12.4103 48.2576 12.6806 48.0555 12.8522C47.581 13.2549 47.0454 13.342 46.4769 13.109C46.2703 13.0244 45.9783 12.927 45.8281 12.8925C45.5484 12.8285 45.4035 12.7455 44.6397 12.2117L44.201 11.9052L44.2556 11.4398C44.2876 11.1662 44.4001 10.8308 44.5285 10.626C44.6486 10.4342 44.7469 10.2322 44.7469 10.1768C44.7469 10.1215 44.7808 10.0646 44.8223 10.0503C44.942 10.009 46.274 8.03027 46.7703 7.15654C47.0187 6.71917 47.2942 6.26832 47.3825 6.15453C47.4708 6.04075 47.5431 5.90584 47.5431 5.8548C47.5431 5.80375 47.6159 5.66885 47.7051 5.55506C47.9048 5.30006 48.0043 4.95489 47.9345 4.7588C47.902 4.66746 47.7427 4.57869 47.516 4.52562C47.1525 4.44044 46.4015 4.15933 45.9568 3.94189C45.8292 3.87954 45.6767 3.82849 45.6179 3.82849C45.5592 3.82849 45.2603 3.71837 44.9538 3.58378C44.6473 3.44926 44.2517 3.32885 44.0747 3.31631C43.8975 3.30384 43.6716 3.26097 43.5726 3.22115C43.4736 3.18125 43.2352 3.10581 43.0429 3.05351C42.8507 3.00114 42.5719 2.90957 42.4234 2.8501C42.0025 2.68145 41.1428 2.49916 40.9826 2.54452C40.903 2.56704 40.7245 2.54701 40.586 2.50002C40.4475 2.45302 40.0392 2.38312 39.6788 2.34469C39.3183 2.30619 38.9251 2.25312 38.805 2.22662C38.4357 2.1451 37.0378 2.14822 36.9166 2.23083ZM30.132 2.23761C30.051 2.30986 28.9266 2.44515 28.5049 2.43346C28.2946 2.42754 28.0739 2.45879 28.0144 2.50282C27.9549 2.54694 27.714 2.5972 27.4792 2.61458C26.943 2.65433 26.2076 2.83724 25.5993 3.08219C25.3411 3.18623 24.9032 3.29558 24.6262 3.32519C24.3493 3.35481 24.1012 3.41006 24.075 3.44794C24.0487 3.48582 23.9349 3.51676 23.822 3.51676C23.7091 3.51676 23.4264 3.60334 23.1936 3.70918C22.7282 3.92077 22.2943 4.08646 22.1589 4.10423C22.1108 4.11046 21.8814 4.19128 21.6492 4.28379C21.4169 4.3763 21.181 4.45275 21.1249 4.45369C21.0688 4.45462 20.9246 4.52398 20.8045 4.60784C20.6843 4.6917 20.5382 4.76106 20.4798 4.762C20.3554 4.76402 20.1928 5.00913 20.1928 5.19469C20.1928 5.26592 20.2812 5.43294 20.3894 5.56589C20.5871 5.80889 20.6979 5.98783 21.4103 7.21421C21.6234 7.58097 21.8239 7.8811 21.8557 7.8811C21.8877 7.8811 21.9866 8.03011 22.0753 8.21232C22.1641 8.39454 22.3176 8.64829 22.4163 8.77626C22.515 8.90423 22.638 9.07958 22.6895 9.16593C22.8845 9.49248 23.0364 9.71678 23.1456 9.83921C23.2076 9.90889 23.2485 9.99656 23.2365 10.034C23.2136 10.1047 23.4083 10.517 23.6967 11.0091C23.7881 11.165 23.8628 11.4036 23.8628 11.5394C23.8628 11.8294 23.375 12.6813 23.1725 12.745C23.0956 12.7692 22.8361 12.8515 22.5958 12.9279C22.3555 13.0043 21.9347 13.1977 21.6605 13.3576C21.0835 13.6943 20.3882 13.8612 20.1119 13.7293C19.8504 13.6045 19.6685 13.2387 19.6685 12.8377C19.6685 12.6326 19.6211 12.4611 19.5542 12.4247C19.4914 12.3904 19.3596 12.2221 19.2614 12.0506C19.1632 11.8792 19.0124 11.6161 18.9263 11.4661C18.8401 11.3161 18.7017 11.1232 18.6188 11.0375C18.5358 10.9517 18.335 10.6536 18.1725 10.375C18.0101 10.0964 17.8454 9.85605 17.8065 9.84093C17.7128 9.80445 17.2218 8.8443 17.2218 8.69747C17.2218 8.63426 17.1825 8.58251 17.1345 8.58251C17.0864 8.58251 17.0471 8.52991 17.0471 8.46561C17.0471 8.40132 17.0115 8.34871 16.968 8.34871C16.9245 8.34871 16.7872 8.19393 16.663 8.00486C16.5387 7.81571 16.337 7.55494 16.2147 7.42534C16.01 7.20829 15.9703 7.19629 15.7115 7.27368C15.557 7.31981 15.3685 7.40523 15.2926 7.46353C15.2167 7.52174 15.1146 7.56936 15.0656 7.56936C15.0167 7.56936 14.8942 7.6307 14.7934 7.70575C14.6926 7.7808 14.4827 7.92981 14.3269 8.03697C14.0339 8.23851 12.3784 9.71226 11.5522 10.507C11.2935 10.7559 10.7921 11.2293 10.4381 11.5591C10.0841 11.8888 9.79445 12.2 9.79445 12.2507C9.79445 12.3012 9.6162 12.4827 9.39827 12.6537C9.18043 12.8247 8.94249 13.0676 8.86961 13.1934C8.79665 13.3192 8.58344 13.5458 8.39566 13.6971C7.98654 14.0267 7.90169 14.2247 8.05784 14.4849C8.18411 14.6953 8.96398 15.1762 9.93094 15.6398C10.2644 15.7997 10.5569 15.9558 10.5809 15.9869C10.6049 16.018 10.7886 16.1175 10.989 16.2081C11.1895 16.2988 11.8256 16.6556 12.4027 17.0011C13.556 17.6917 14.1882 18.0126 14.3953 18.0126C14.5952 18.0126 15.1247 18.5168 15.1247 18.7071C15.1247 18.9067 14.8037 19.5512 14.5972 19.7662C14.4597 19.9092 14.2224 20.2738 13.657 21.2104C13.3212 21.7667 12.8133 21.8951 12.1565 21.5897C11.9627 21.4997 11.8042 21.3969 11.8042 21.3612C11.8042 21.3255 11.7158 21.2725 11.6076 21.2432C11.4995 21.2139 11.3324 21.1277 11.2362 21.0515C11.1401 20.9754 10.8649 20.8379 10.6246 20.7461C10.3843 20.6543 10.1452 20.5541 10.0932 20.5234C10.0412 20.4927 9.78563 20.3414 9.52523 20.1871C9.10764 19.9398 8.81745 19.7863 7.95945 19.3595C7.8393 19.2997 7.62303 19.1837 7.47886 19.1018C7.33468 19.0198 7.09875 18.8997 6.95457 18.835C6.81039 18.7701 6.63344 18.6831 6.56135 18.6414C6.06975 18.3571 5.41483 18.223 5.24994 18.3731C5.2087 18.4106 5.07439 18.7096 4.95145 19.0375C4.8285 19.3655 4.62918 19.8089 4.50869 20.023C4.3881 20.2371 4.28945 20.4686 4.28945 20.5373C4.28945 20.6061 4.22784 20.6624 4.15252 20.6624C4.05789 20.6624 4.03176 20.708 4.06794 20.8098C4.09677 20.8908 4.05815 21.11 3.98213 21.2969C3.90611 21.4837 3.78281 21.8119 3.70819 22.0263C3.63356 22.2406 3.54208 22.451 3.50485 22.4939C3.46763 22.5367 3.39091 22.8173 3.33437 23.1173C3.27784 23.4174 3.16118 23.7856 3.0752 23.9357C2.98922 24.0857 2.93329 24.2461 2.95094 24.2921C2.96859 24.3381 2.9 24.794 2.79855 25.3053C2.47201 26.95 2.29899 28.5759 2.43234 28.7474C2.47524 28.8027 2.69308 28.8438 2.93976 28.8433C3.17744 28.8427 4.25668 28.8393 5.33802 28.8356C6.41936 28.8319 7.9529 28.8355 8.74588 28.8436C10.1449 28.8579 10.1968 28.8643 10.4935 29.0589C11.0978 29.4552 11.1106 29.4875 11.0568 30.4822C11.0301 30.9751 10.9987 31.6064 10.9869 31.885C10.9697 32.2896 10.9163 32.4572 10.7217 32.7176L10.478 33.0436L6.61081 33.0293C2.33342 33.0136 2.45444 32.9997 2.45444 33.505C2.45444 33.807 2.68338 35.0584 2.80685 35.431C2.84941 35.5596 2.91145 35.9103 2.94457 36.2104C2.97768 36.5104 3.07948 36.9488 3.17071 37.1846C3.34346 37.6312 3.62788 38.6504 3.71911 39.1499C3.74821 39.3093 3.82773 39.4894 3.89588 39.5501C3.96404 39.6109 4.06558 39.823 4.12168 40.0215C4.17769 40.2201 4.25808 40.4016 4.30019 40.4248C4.34231 40.448 4.37683 40.5526 4.37683 40.6573C4.37683 40.7619 4.40654 40.8475 4.44298 40.8475C4.47933 40.8475 4.55543 40.9791 4.61215 41.1398C4.86739 41.8634 5.24671 42.4371 5.49094 42.4693C5.59186 42.4826 5.82482 42.4261 6.00867 42.3438C7.33494 41.7504 8.71067 41.0815 9.78676 40.5068C10.4793 40.137 11.1092 39.8343 11.1863 39.8343C11.2636 39.8343 11.4714 39.7467 11.6482 39.6395C11.825 39.5324 12.0125 39.4447 12.0648 39.4447C12.1171 39.4447 12.2553 39.3889 12.3719 39.3208C12.5739 39.2028 12.6027 39.2089 12.9805 39.4509C13.1986 39.5906 13.3771 39.7465 13.3771 39.7974C13.3771 39.8482 13.5104 40.0456 13.6735 40.2361C13.8364 40.4265 14.0356 40.7559 14.1158 40.9681C14.1961 41.1804 14.3121 41.4242 14.3736 41.5099C14.4381 41.6 14.468 41.794 14.4444 41.9693C14.3966 42.3244 13.8743 42.8753 13.3599 43.1131C13.1823 43.1952 13.0054 43.3065 12.9667 43.3603C12.8755 43.4875 12.3561 43.7304 12.1685 43.7336C11.9952 43.7365 11.7168 43.912 11.7168 44.0182C11.7168 44.1006 11.2894 44.3306 10.6491 44.5926C10.4224 44.6854 10.1931 44.8083 10.1397 44.8658C10.0862 44.9232 9.86873 45.0453 9.6563 45.1369C9.44397 45.2287 9.27017 45.3356 9.27017 45.3746C9.27017 45.4137 9.20699 45.4456 9.12983 45.4456C9.05267 45.4456 8.87276 45.5333 8.72998 45.6405C8.5872 45.7476 8.41969 45.8353 8.35773 45.8353C8.17083 45.8353 7.78469 46.1486 7.78469 46.3003C7.78469 46.3783 7.83782 46.4603 7.90283 46.4826C7.96775 46.5048 8.09777 46.6614 8.19162 46.8306C8.35468 47.1247 8.9036 47.627 9.06325 47.6285C9.10493 47.6289 9.29498 47.8481 9.48556 48.1156C9.67614 48.3831 10.0104 48.7495 10.2283 48.9297C10.7045 49.3235 10.6303 49.2522 11.286 49.9464C11.5796 50.2571 11.8753 50.5114 11.9431 50.5114C12.0109 50.5114 12.0664 50.5491 12.0664 50.595C12.0664 50.6966 13.8171 52.2577 14.2669 52.5572C14.4439 52.6751 14.6274 52.7715 14.6747 52.7715C14.722 52.7715 14.7737 52.7978 14.7898 52.83C14.838 52.9268 15.4496 53.3131 15.4931 53.2743C15.5154 53.2544 15.6049 53.3085 15.6921 53.3945C15.9355 53.6343 16.312 53.5957 16.6151 53.2997C16.7565 53.1616 16.8723 52.9757 16.8723 52.8866C16.8723 52.6335 17.0519 52.5149 17.1898 52.6768C17.2899 52.7943 17.304 52.7758 17.3064 52.5228C17.308 52.3646 17.3455 52.2152 17.3898 52.1907C17.4341 52.1663 17.5947 51.9188 17.7466 51.6406C17.8985 51.3625 18.0589 51.1349 18.1029 51.1349C18.1469 51.1349 18.183 51.0472 18.183 50.94C18.183 50.8329 18.2186 50.7452 18.262 50.7452C18.3055 50.7452 18.4871 50.4909 18.6656 50.1802C18.8442 49.8695 19.134 49.4398 19.3097 49.2255C19.8537 48.5622 19.9913 48.3713 20.0553 48.1914C20.0893 48.0957 20.1538 48.0175 20.1987 48.0175C20.2435 48.0175 20.2802 47.9727 20.2802 47.9179C20.2802 47.8631 20.3636 47.7546 20.4657 47.6767C20.6114 47.5654 20.7327 47.546 21.0316 47.586C21.2408 47.6139 21.435 47.6699 21.4631 47.7104C21.5344 47.8135 22.5408 48.2513 22.7063 48.2513C23.1339 48.2513 24.0593 48.9692 24.2917 49.481C24.4026 49.7252 24.3983 49.7801 24.249 50.0343C24.1579 50.1895 23.896 50.5348 23.6672 50.8014C23.4384 51.0681 23.2511 51.3116 23.2511 51.3427C23.2511 51.3738 23.1525 51.491 23.0319 51.6032C22.9113 51.7155 22.7406 51.9897 22.6526 52.2128C22.5645 52.4358 22.4076 52.6988 22.3038 52.7973C22.2 52.8958 22.1152 53.0179 22.1152 53.0688C22.1152 53.1196 22.0759 53.1612 22.0278 53.1612C21.9797 53.1612 21.9404 53.2002 21.9404 53.2478C21.9404 53.3677 21.1698 54.7306 21.0165 54.8819C20.9479 54.9496 20.8918 55.0413 20.8918 55.0857C20.8918 55.1301 20.8107 55.2585 20.7115 55.3709C20.5931 55.5052 20.5406 55.662 20.5586 55.8272C20.5878 56.0961 20.7177 56.1805 21.3724 56.3564C21.5647 56.4079 21.8602 56.5294 22.0291 56.6262C22.3809 56.8277 23.5831 57.2138 23.8587 57.2138C23.9605 57.2138 24.1358 57.2676 24.2482 57.3333C24.4398 57.4453 24.5337 57.4722 25.0834 57.5732C25.2021 57.5949 25.3505 57.6507 25.4132 57.6971C25.4759 57.7436 25.5522 57.7593 25.5826 57.7321C25.6131 57.705 25.6809 57.7141 25.7335 57.7523C25.786 57.7906 26.1824 57.8807 26.6145 57.9525C27.0466 58.0243 27.4398 58.1111 27.4883 58.1454C27.5368 58.1797 27.8099 58.2329 28.0951 58.2637C28.3803 58.2945 28.7145 58.3587 28.8378 58.4063C28.9611 58.4539 29.2782 58.5004 29.5426 58.5097C29.8069 58.519 30.4055 58.5471 30.8727 58.5722C31.6859 58.616 31.7276 58.6104 31.8507 58.4419C31.9594 58.293 31.9723 57.8883 31.934 55.811C31.8811 52.9282 31.8776 53.2478 31.9684 52.6109C32.0561 51.9965 32.4241 51.4227 32.8194 51.2844C33.1127 51.1816 35.7466 51.1053 35.7466 51.1995C35.7466 51.2325 35.8794 51.3023 36.0416 51.3546C36.2916 51.4352 36.3528 51.5059 36.4431 51.8184C36.5018 52.0211 36.5892 52.2813 36.6372 52.3966C36.6853 52.5119 36.7006 52.641 36.6711 52.6835C36.6417 52.726 36.649 52.7781 36.6874 52.7993C36.7258 52.8204 36.745 53.3577 36.73 53.9931C36.7151 54.6286 36.7079 55.2537 36.7141 55.3823C36.7204 55.5109 36.7215 55.66 36.7166 55.7135C36.7025 55.8697 36.7017 56.0263 36.7096 57.0969C36.7139 57.6615 36.7635 58.2296 36.8218 58.3802C36.9709 58.7657 37.391 58.8461 38.2551 58.6541C38.6056 58.5763 38.9138 58.5319 38.9403 58.5554C38.9667 58.5791 39.1535 58.5623 39.3554 58.5183C39.753 58.4317 40.2105 58.3792 40.5457 58.3817C40.6621 58.3826 40.8487 58.3298 40.9606 58.2644C41.0724 58.1991 41.3561 58.1312 41.5911 58.1136C41.8261 58.096 42.3078 57.9949 42.6617 57.8889C43.0156 57.7829 43.5214 57.6551 43.7857 57.6048C44.05 57.5545 44.3158 57.4996 44.3764 57.4827C44.437 57.4657 44.496 57.4538 44.5074 57.4563C44.519 57.4587 44.7307 57.3701 44.978 57.2593C45.2253 57.1486 45.4887 57.0579 45.5635 57.0579C45.6382 57.0579 45.7308 57.0098 45.7692 56.9511C45.8077 56.8923 46.0606 56.7873 46.3312 56.7177C46.6018 56.6482 46.9113 56.5277 47.019 56.45C47.3083 56.2411 47.1933 55.8191 46.6192 54.9835C46.1426 54.2896 45.9048 53.8872 45.692 53.4145C45.6293 53.2752 45.5276 53.1612 45.4661 53.1612C45.4045 53.1612 45.3306 53.056 45.3017 52.9274C45.2729 52.7988 45.2139 52.6936 45.1707 52.6936C45.1274 52.6936 45.0516 52.5972 45.0021 52.4793C44.747 51.8714 44.3577 51.2128 44.2533 51.2128C44.1883 51.2128 44.1352 51.1435 44.1352 51.0588C44.1352 50.9741 44.0567 50.79 43.9608 50.6497C43.8649 50.5093 43.7853 50.3244 43.7841 50.2386C43.7828 50.1529 43.7049 49.9951 43.6109 49.8879C43.3969 49.644 43.3971 49.6194 43.6145 49.2189C43.7793 48.9152 43.8409 48.8765 44.4228 48.7103C44.7692 48.6112 45.269 48.4277 45.5333 48.3024C46.3584 47.9114 47.1468 47.769 47.4474 47.9568C47.6713 48.0966 47.9907 48.4565 48.0134 48.5944C48.023 48.6523 48.2454 48.9921 48.5078 49.3496C48.7702 49.7071 49.0138 50.0637 49.0491 50.1423C49.0845 50.2208 49.2169 50.4061 49.3435 50.5541C49.47 50.702 49.5414 50.8231 49.5021 50.8231C49.4627 50.8231 49.4777 50.8652 49.5354 50.9167C49.593 50.9681 49.6402 51.0822 49.6402 51.1702C49.6402 51.2583 49.7559 51.4276 49.8973 51.5466C50.0387 51.6657 50.179 51.8322 50.2091 51.9166C50.239 52.001 50.3003 52.0701 50.3451 52.0701C50.3899 52.0701 50.4266 52.1503 50.4266 52.2484C50.4266 52.3465 50.543 52.5482 50.6852 52.6965C50.8275 52.8449 50.9454 53.0082 50.9473 53.0593C50.951 53.1544 51.2929 53.7144 51.3903 53.7847C51.42 53.8061 51.4675 53.8801 51.496 53.9492C51.6236 54.2585 52.249 54.1034 52.8662 53.6093C53.0135 53.4914 53.1721 53.395 53.2186 53.395C53.2653 53.395 53.5116 53.2459 53.7661 53.0638C54.0205 52.8816 54.4054 52.6485 54.6215 52.5457C54.8374 52.443 55.1124 52.2669 55.2326 52.1544C55.3527 52.042 55.5985 51.8501 55.7787 51.728C55.959 51.6059 56.1073 51.4664 56.1083 51.4179C56.1093 51.3694 56.2522 51.2245 56.4257 51.0959C56.5992 50.9673 56.8038 50.8007 56.8802 50.7257C56.9565 50.6507 57.0666 50.5893 57.1247 50.5893C57.1829 50.5893 57.3144 50.4841 57.4171 50.3555C57.5198 50.2269 57.6601 50.1217 57.7289 50.1217C57.7978 50.1217 57.854 50.0951 57.854 50.0625C57.854 50.0299 57.9425 49.9147 58.0506 49.8066C58.1587 49.6985 58.3815 49.4533 58.5456 49.2619C58.7097 49.0704 58.9566 48.8315 59.0942 48.7311C59.2318 48.6306 59.4227 48.4114 59.5185 48.244C59.6142 48.0766 59.7311 47.9396 59.7782 47.9396C59.8253 47.9396 59.8638 47.876 59.8638 47.7983C59.8638 47.7206 59.9818 47.5562 60.1259 47.433C60.2701 47.3098 60.3881 47.169 60.3881 47.1202C60.3881 46.922 59.4383 46.3809 59.0904 46.3809C58.9905 46.3809 58.7402 46.2982 58.5343 46.1972C58.3283 46.0961 58.0518 45.9903 57.9196 45.9619C57.7874 45.9335 57.6793 45.8783 57.6793 45.8394C57.6793 45.8004 57.376 45.5994 57.0052 45.3927C56.1319 44.9059 56.0019 44.8376 55.8443 44.7823C55.6941 44.7295 55.4261 44.6114 54.9268 44.3775C54.7345 44.2875 54.4003 44.1381 54.184 44.0456C53.2117 43.6296 53.1047 43.5245 53.0067 42.8888C52.9305 42.395 53.0726 42.0751 53.539 41.6905C53.7114 41.5484 54.0733 41.1865 54.3432 40.8865C54.6132 40.5864 54.8943 40.2857 54.9678 40.2181C55.1794 40.0237 55.6469 39.8887 55.9322 39.9396C56.3217 40.0092 56.9824 40.2943 57.0346 40.4154C57.0596 40.4738 57.1953 40.5641 57.336 40.616C57.4767 40.668 57.5919 40.739 57.5919 40.7738C57.5919 40.8085 57.6795 40.8618 57.7866 40.8921C57.8936 40.9224 58.1823 41.0826 58.428 41.2481C58.6737 41.4135 58.9137 41.5489 58.9612 41.5489C59.0661 41.5489 59.8116 41.8808 59.9699 41.998C60.0322 42.0442 60.1861 42.105 60.312 42.1331C60.4378 42.1613 60.7128 42.3241 60.9231 42.495C61.1335 42.6658 61.4432 42.8575 61.6114 42.9211C61.7796 42.9846 61.9959 43.0672 62.092 43.1046C62.3943 43.2223 62.8549 43.3414 63.0078 43.3414C63.21 43.3414 63.6707 42.7428 63.7443 42.3843C63.7986 42.1202 64.1298 41.3686 64.5761 40.4968C64.8569 39.9481 64.9966 39.5732 65.0985 39.094C65.2361 38.4473 65.4542 37.7216 65.567 37.5353C65.6189 37.4495 65.6528 37.2459 65.6423 37.0826C65.6318 36.9194 65.6643 36.6652 65.7145 36.5176C65.7646 36.3701 65.844 36.1354 65.8908 35.9961C65.9376 35.8567 65.9866 35.2924 65.9995 34.7419L66.0231 33.7411L65.7784 33.5534C65.6234 33.4345 65.4155 33.3626 65.211 33.3572C65.0334 33.3524 64.5736 33.3348 64.1892 33.318C63.8047 33.3012 62.5857 33.2902 61.4803 33.2935C60.375 33.2969 59.3133 33.2997 59.1211 33.2998C58.4713 33.2999 58.2227 33.2121 58.0154 32.9092C57.8418 32.6554 57.8195 32.51 57.8051 31.5343C57.7962 30.9342 57.8209 30.3879 57.8601 30.3203C57.8993 30.2527 57.9449 30.1125 57.9614 30.0086C58.0709 29.3194 58.8633 29.2121 64.4163 29.1343C66.2996 29.1079 66.2728 29.1217 66.2691 28.1779C66.2672 27.6933 66.2084 27.3097 66.0757 26.9158C65.9709 26.6046 65.8939 26.1997 65.9045 26.0161C65.9236 25.6873 65.7546 24.9319 65.4738 24.0915C65.3951 23.8558 65.3232 23.47 65.314 23.2342C65.289 22.5904 65.0124 21.5732 64.8359 21.476C64.7867 21.4488 64.7095 21.3511 64.6646 21.2588C64.6196 21.1666 64.5495 21.0384 64.5088 20.9741C64.3023 20.6481 64.2328 20.4963 64.2325 20.3712C64.2323 20.2956 64.1543 20.1197 64.059 19.9804C63.9637 19.841 63.8405 19.5605 63.7851 19.3569C63.7297 19.1533 63.5886 18.8026 63.4716 18.5776C63.2765 18.2023 63.2395 18.1725 63.025 18.2174C62.8964 18.2445 62.7537 18.2971 62.708 18.3344C62.6623 18.3717 62.5346 18.4023 62.4241 18.4023C62.3135 18.4023 62.2231 18.435 62.2231 18.475C62.2231 18.515 62.1346 18.5711 62.0265 18.5998C61.9184 18.6285 61.6867 18.7521 61.5118 18.8746C61.1791 19.1076 60.8675 19.2597 59.9949 19.615C59.7065 19.7324 59.2936 19.9412 59.0774 20.0789C58.6987 20.3201 57.2516 20.9741 57.0968 20.9741C57.0553 20.9741 56.8646 21.0496 56.6731 21.1417C56.2366 21.3517 55.7764 21.4485 55.5923 21.3691C55.5146 21.3356 55.3271 21.2505 55.1754 21.1801C55.0238 21.1097 54.8352 21.0521 54.7562 21.0521C54.5628 21.0521 54.2131 21.4181 54.086 21.7535C54.0292 21.9035 53.8314 22.2405 53.6465 22.5023C53.4615 22.7641 53.3102 23.0046 53.3102 23.0366C53.3102 23.0686 53.2175 23.1931 53.1043 23.3132C52.9909 23.4333 52.873 23.6726 52.842 23.8449C52.8079 24.0356 52.7072 24.2137 52.5847 24.3002C52.474 24.3783 52.3069 24.565 52.2133 24.715C52.1197 24.865 51.9776 25.0317 51.8973 25.0853C51.817 25.1388 51.6834 25.3668 51.6005 25.5919C51.5175 25.8168 51.3374 26.1475 51.2003 26.3267C51.0631 26.5059 50.9507 26.6812 50.9503 26.7164C50.9493 26.8201 50.4014 27.1166 50.1632 27.1424C49.7943 27.1822 49.2916 26.9206 49.2328 26.6583C49.2045 26.5325 49.147 26.4296 49.105 26.4296C49.063 26.4296 49.0285 26.3778 49.0285 26.3145C49.0285 26.2513 48.9501 26.0847 48.8541 25.9443C48.7582 25.804 48.6795 25.5927 48.6794 25.4749C48.6792 25.357 48.6397 25.2605 48.5916 25.2605C48.5436 25.2605 48.5043 25.1963 48.5043 25.1179C48.5043 24.7915 47.6599 24.6999 47.3337 24.9908C47.2634 25.0535 47.1687 25.1047 47.1231 25.1047C47.0775 25.1047 46.9947 25.1536 46.939 25.2134C46.8833 25.2733 46.7076 25.3439 46.5485 25.3706C46.2107 25.4271 45.5691 25.6914 45.489 25.807C45.4585 25.851 45.2428 25.9732 45.0096 26.0786C44.7764 26.184 44.4351 26.3616 44.2512 26.4732C44.0672 26.5849 43.7104 26.7636 43.458 26.8703C43.2056 26.9771 42.9992 27.0912 42.9992 27.1239C42.9992 27.1566 42.7732 27.2837 42.4968 27.4061C42.2204 27.5285 41.7704 27.7623 41.4967 27.9254C41.2231 28.0886 40.9576 28.2221 40.9069 28.2221C40.8562 28.2221 40.8147 28.254 40.8147 28.2931C40.8147 28.3321 40.628 28.4427 40.3997 28.5389C40.1713 28.635 39.729 28.8604 39.4166 29.0394C38.6282 29.4916 37.8716 29.8576 37.8203 29.8118C37.7966 29.7906 37.6348 29.9216 37.461 30.1028C37.1881 30.3872 37.0852 30.6405 37.1375 30.8997C37.1449 30.9364 37.0709 31.0875 36.9731 31.2353C36.8752 31.3833 36.7952 31.5616 36.7952 31.6316C36.7952 31.8389 36.1307 32.3299 35.6622 32.4687C35.1745 32.6131 33.7969 32.5932 33.6241 32.4391C33.5707 32.3915 33.435 32.3526 33.3224 32.3526C33.0992 32.3526 32.2514 31.6999 32.2514 31.5281C32.2514 31.4721 32.1754 31.3103 32.0826 31.1685C31.9631 30.9859 31.9088 30.7405 31.8962 30.3263C31.8721 29.5328 31.9927 29.1812 32.3894 28.889C33.5033 28.0689 33.4513 28.2293 33.3963 25.7785C33.3831 25.1836 33.4109 24.9673 33.5202 24.8186C33.6205 24.682 33.6349 24.5983 33.57 24.5287C33.517 24.4717 33.4887 24.1286 33.5025 23.7103C33.5155 23.3141 33.5018 22.9764 33.472 22.96C33.4257 22.9344 33.4322 22.3708 33.4891 21.4807C33.4973 21.3521 33.4936 21.1417 33.4808 21.0131C33.4177 20.3769 33.444 17.2199 33.5257 15.6356C33.5983 14.2303 33.5939 11.5567 33.5184 11.0961C33.4523 10.6933 33.2504 10.5662 32.8906 10.7009C32.7553 10.7516 32.5856 10.7991 32.5135 10.8065C32.4414 10.8139 32.1838 10.9128 31.9412 11.0262C31.5958 11.1876 31.3679 11.2341 30.8926 11.2405C29.9838 11.2526 29.3528 11.1617 29.1057 10.983C28.9185 10.8476 28.8897 10.7677 28.9046 10.4247C28.9243 9.96773 29.1439 9.31136 29.4292 8.85529C29.5365 8.68383 29.7144 8.38573 29.8243 8.19284C29.9343 7.99995 30.0928 7.75539 30.1766 7.6494C30.2604 7.54349 30.329 7.39931 30.329 7.32909C30.329 7.25887 30.4234 7.07744 30.5387 6.92585C30.6541 6.77427 30.7766 6.56767 30.811 6.46682C30.8454 6.36597 30.9771 6.16467 31.1037 6.01947C31.7267 5.30489 31.8992 5.02986 31.9005 4.74883C31.9012 4.59062 31.9317 4.4448 31.968 4.4247C32.0439 4.38284 32.0269 3.257 31.9425 2.74076C31.9113 2.54966 31.8205 2.34914 31.7409 2.29513C31.5947 2.19592 30.2333 2.14729 30.132 2.23761ZM10.7321 10.5246C10.6941 10.6543 10.7055 10.6847 10.7703 10.6269C10.8212 10.5815 10.8455 10.4985 10.8245 10.4423C10.8027 10.3839 10.7631 10.4193 10.7321 10.5246ZM7.2604 14.1938C7.2604 14.2367 7.29972 14.2718 7.34778 14.2718C7.39584 14.2718 7.43516 14.2367 7.43516 14.1938C7.43516 14.151 7.39584 14.1159 7.34778 14.1159C7.29972 14.1159 7.2604 14.151 7.2604 14.1938ZM33.9626 25.3107C33.8894 25.4807 33.9866 25.5597 34.0898 25.4142C34.1932 25.2684 34.1953 25.1826 34.0957 25.1826C34.0528 25.1826 33.9929 25.2402 33.9626 25.3107ZM60.7376 26.8238C60.7376 26.8692 60.7769 26.8847 60.825 26.8582C60.873 26.8317 60.9124 26.7946 60.9124 26.7757C60.9124 26.7567 60.873 26.7413 60.825 26.7413C60.7769 26.7413 60.7376 26.7785 60.7376 26.8238ZM60.1328 37.6197C60.137 37.7105 60.1577 37.7289 60.1856 37.6668C60.2109 37.6106 60.2077 37.5433 60.1787 37.5174C60.1497 37.4915 60.1291 37.5375 60.1328 37.6197ZM67.2038 38.812C67.2038 38.8549 67.2431 38.9116 67.2912 38.9381C67.3392 38.9646 67.3786 38.9512 67.3786 38.9083C67.3786 38.8655 67.3392 38.8087 67.2912 38.7822C67.2431 38.7557 67.2038 38.7691 67.2038 38.812ZM1.84968 39.1004C1.85387 39.1912 1.87458 39.2097 1.90246 39.1476C1.92771 39.0913 1.92457 39.0241 1.89556 38.9982C1.86655 38.9723 1.84592 39.0183 1.84968 39.1004ZM63.8846 40.3214C63.8858 40.4632 63.9022 40.4744 63.9707 40.3799C64.0802 40.2288 64.0802 40.1461 63.9707 40.1461C63.9226 40.1461 63.8839 40.225 63.8846 40.3214ZM60.3881 45.3853C60.3881 45.4522 60.4527 45.529 60.5315 45.556C60.6563 45.5987 60.6596 45.5872 60.5562 45.4669C60.4909 45.3909 60.4264 45.3142 60.4128 45.2962C60.3992 45.2784 60.3881 45.3185 60.3881 45.3853ZM59.1716 47.7512C59.1758 47.842 59.1965 47.8605 59.2244 47.7983C59.2497 47.7421 59.2465 47.6748 59.2175 47.6489C59.1885 47.6231 59.1679 47.669 59.1716 47.7512ZM69.7579 55.2801C69.8119 55.4246 70 55.4485 70 55.3109C70 55.243 69.9378 55.1875 69.8617 55.1875C69.7856 55.1875 69.7388 55.2291 69.7579 55.2801Z" fill="#0057FF"/>
</svg>
