<svg width="53" height="78" viewBox="0 0 53 78" fill="none" xmlns="http://www.w3.org/2000/svg">
<path d="M40.6689 0.127561C40.9892 0.129492 41.4468 0.0990949 41.6859 0.060044C42.2574 -0.0333634 42.9639 -0.0151267 43.0922 0.0962327C43.1485 0.145082 43.3336 0.218965 43.5035 0.260376C43.6734 0.301787 43.8586 0.375026 43.9149 0.42316C43.9711 0.471294 44.115 0.556405 44.2345 0.612192C44.3541 0.667979 44.4519 0.740431 44.4519 0.773116C44.4519 0.805801 44.5425 0.83255 44.6534 0.83255C44.7642 0.83255 44.9608 0.882114 45.0903 0.942764C45.2198 1.00334 45.3619 1.03281 45.406 1.00814C45.4501 0.98346 45.529 0.994046 45.5815 1.03167C45.6339 1.06922 45.8101 1.12171 45.9731 1.14832C46.1361 1.17493 46.3563 1.26762 46.4626 1.3543C46.8622 1.68073 47.0288 1.82677 47.3268 2.11229C47.4954 2.27386 47.6819 2.40603 47.7411 2.40603C47.8854 2.40603 48.2452 2.6944 48.2452 2.81013C48.2452 2.90246 48.5105 3.36764 48.6549 3.52871C48.7191 3.60023 48.7762 3.92308 48.7944 4.31602C48.7965 4.36336 48.8873 4.48259 48.9959 4.58093C49.1046 4.67928 49.1935 4.80344 49.1935 4.85679C49.1935 4.91015 49.2646 5.02294 49.3516 5.10741C49.4534 5.20632 49.5096 5.35981 49.5096 5.53904C49.5096 5.85102 49.6905 6.23337 49.8672 6.29474C50.0434 6.35589 50.0156 6.7921 49.8257 6.94766C49.7388 7.01883 49.6669 7.16065 49.6659 7.26272C49.665 7.36478 49.5946 7.52878 49.5096 7.62712C49.3399 7.82337 49.2979 8.31923 49.4306 8.5579L49.5886 8.84199C49.6321 8.92016 49.6677 9.12292 49.6677 9.29257C49.6677 9.46229 49.6984 9.63173 49.7359 9.66906C49.7734 9.7064 49.8436 9.84386 49.8918 9.97453C49.9662 10.1762 49.9575 10.2334 49.8343 10.3531C49.6015 10.5793 49.5621 11.2297 49.7576 11.6182C49.8457 11.7933 49.9002 11.9977 49.8787 12.0722C49.8573 12.1467 49.887 12.2955 49.9451 12.4028C50.0962 12.6824 50.1825 13.2773 50.0718 13.2773C50.0234 13.2773 49.9838 13.3256 49.9838 13.3846C49.9838 13.4436 49.9482 13.4919 49.9048 13.4919C49.8613 13.4919 49.8257 13.6045 49.8257 13.7422C49.8257 13.8799 49.8524 13.9928 49.885 13.9931C49.9784 13.994 50.1418 14.3595 50.1418 14.5675C50.1418 14.6991 50.0824 14.7808 49.9458 14.8372C49.7829 14.9043 49.7575 14.9533 49.7957 15.1261C49.822 15.2451 49.8044 15.355 49.7547 15.3828C49.7068 15.4095 49.6677 15.5261 49.6677 15.6418C49.6677 15.7575 49.636 15.8521 49.5973 15.8521C49.4933 15.8521 49.4175 16.3202 49.4294 16.8892C49.4378 17.2891 49.4787 17.4435 49.6328 17.6565C49.7389 17.8032 49.8257 18.0185 49.8257 18.1351C49.8257 18.2516 49.8613 18.3668 49.9048 18.3911C50.0177 18.4543 50.0026 19.2573 49.885 19.4434C49.8307 19.5294 49.724 19.6637 49.6479 19.742C49.4514 19.9442 49.465 20.385 49.6715 20.5102C49.7606 20.5642 49.8319 20.6727 49.83 20.7514C49.8282 20.83 49.8272 21.1495 49.828 21.4614C49.8288 21.8063 49.7945 22.0478 49.7402 22.0782C49.6898 22.1063 49.6534 22.305 49.6564 22.5355C49.6595 22.7598 49.63 22.9971 49.5909 23.0632C49.3799 23.4205 49.2526 24.7923 49.4306 24.7923C49.474 24.7923 49.5096 24.8632 49.5096 24.9498C49.5096 25.0365 49.6126 25.2055 49.7386 25.3253C50.0572 25.6288 50.1258 25.9616 49.9042 26.1299C49.6105 26.3529 49.5696 26.4866 49.712 26.7583C49.8503 27.022 49.8375 27.3551 49.6667 27.9393C49.615 28.1163 49.5455 28.5186 49.5121 28.8333C49.4789 29.148 49.4258 29.4748 49.3944 29.5596C49.3501 29.6787 49.3745 29.7243 49.5024 29.761C49.5933 29.7871 49.6704 29.8627 49.6739 29.9288C49.69 30.2408 49.6568 31.0019 49.6184 31.2004C49.5897 31.349 49.6168 31.4591 49.7007 31.5351C49.8622 31.6812 49.8584 31.7446 49.6696 32.0488C49.5397 32.2579 49.5133 32.4365 49.5131 33.1059C49.5128 34.0812 49.5347 34.3725 49.6206 34.5393C49.7289 34.749 49.2721 35.0915 48.8841 35.0915C48.5759 35.0915 48.2815 35.1361 47.1388 35.3563C46.4989 35.4796 44.6313 35.5009 44.3891 35.3877C44.236 35.3161 42.0109 35.3307 41.6404 35.4057C41.5067 35.4328 41.2966 35.4203 41.1736 35.3781C41.0506 35.3357 40.6443 35.3008 40.2708 35.3005C39.8973 35.3 39.3116 35.2492 38.9693 35.1873C38.3224 35.0704 38.1461 35.0775 37.0148 35.2657C36.406 35.367 36.3048 35.3675 36.0493 35.2709C35.8923 35.2116 35.6561 35.163 35.5243 35.163C35.3925 35.163 35.2847 35.1372 35.2847 35.1058C35.2847 35.0743 35.0002 34.923 34.6525 34.7696C34.2224 34.5799 34.0202 34.4509 34.0202 34.3662C34.0202 34.2977 33.9847 34.2218 33.9412 34.1975C33.8978 34.1731 33.8622 34.0908 33.8622 34.0144C33.8622 33.938 33.8307 33.8756 33.7921 33.8756C33.7193 33.8756 33.6443 33.6143 33.5767 33.1246C33.5549 32.9673 33.4972 32.7654 33.4483 32.6762C33.3819 32.5545 33.383 32.4927 33.4528 32.4294C33.5045 32.3827 33.5461 32.1466 33.5461 31.9004C33.5461 31.6084 33.58 31.4455 33.6449 31.4258C33.7437 31.3957 33.7095 31.2945 33.4471 30.8391C33.3901 30.7404 33.3929 30.6915 33.4563 30.6723C33.5057 30.6574 33.5461 30.5355 33.5461 30.4014C33.5461 30.2373 33.5963 30.1293 33.7001 30.0706C33.8135 30.0066 33.8321 29.9595 33.7704 29.8923C33.7217 29.8391 33.6811 29.3751 33.6734 28.7808C33.6657 28.1985 33.623 27.7024 33.5738 27.6252C33.5265 27.5507 33.5059 27.4268 33.5282 27.3497C33.5507 27.272 33.5199 27.1821 33.4593 27.1482C33.3721 27.0995 33.3699 27.0689 33.4479 26.9982C33.5019 26.9494 33.5461 26.8332 33.5461 26.7402C33.5461 26.6471 33.5845 26.5061 33.6314 26.4267C33.6975 26.3149 33.6882 26.2539 33.59 26.1556C33.4604 26.0261 33.494 25.8066 33.6589 25.7062C33.7126 25.6736 33.6773 25.6123 33.5626 25.5392C33.4113 25.4428 33.3828 25.3629 33.3895 25.0544C33.394 24.8513 33.3963 24.6287 33.3947 24.5599C33.3891 24.3201 33.4222 24.1486 33.4742 24.1486C33.5232 24.1486 33.6096 23.6479 33.6596 23.075C33.6717 22.9368 33.7041 22.7596 33.7316 22.6811C33.7591 22.6026 33.7523 22.3183 33.7166 22.0493C33.6661 21.6697 33.6757 21.5383 33.7595 21.4625C33.8453 21.3848 33.8481 21.3313 33.7734 21.2012C33.5795 20.8633 33.5461 20.7861 33.5461 20.6766C33.5461 20.61 33.5865 20.5826 33.6449 20.6095C33.6992 20.6346 33.6668 20.5934 33.5728 20.518C33.3898 20.3713 33.2901 19.8189 33.4302 19.7281C33.6408 19.5914 33.8025 19.0706 33.6344 19.0706C33.5063 19.0706 33.4864 18.8075 33.5967 18.5703C33.7064 18.334 33.6664 18.2113 33.4275 18.0525C33.3786 18.0199 33.3861 17.9996 33.4473 17.9988C33.5017 17.9983 33.5461 17.921 33.5461 17.8272C33.5461 17.6088 33.3549 17.1934 33.284 17.2575C33.2542 17.2844 33.23 17.0952 33.23 16.8373C33.23 16.477 33.2587 16.3581 33.354 16.325C33.4344 16.2971 33.461 16.2335 33.4295 16.1439C33.3978 16.0535 33.4287 15.9816 33.5191 15.9359C33.6261 15.8817 33.6367 15.8437 33.5666 15.7672C33.5084 15.7038 33.5022 15.6311 33.5494 15.5636C33.5897 15.506 33.6235 15.3783 33.6244 15.2799C33.6254 15.1816 33.6782 15.0107 33.7419 14.9002C33.8337 14.7407 33.8382 14.671 33.7631 14.5623C33.6894 14.4555 33.69 14.4059 33.7654 14.3376C33.8838 14.2305 33.8899 13.8351 33.7786 13.4727C33.7102 13.2499 33.7184 13.1827 33.8251 13.0861C34.07 12.8645 34.1048 12.6514 33.9726 12.1835C33.9037 11.9394 33.8155 11.6843 33.7767 11.6168C33.7341 11.5427 33.7375 11.4192 33.7853 11.3054C33.8288 11.2017 33.8581 10.953 33.8503 10.7527C33.8415 10.5286 33.8714 10.3779 33.9282 10.3608C34.0481 10.3246 34.0465 10.1112 33.9254 10.0016C33.8517 9.93491 33.8517 9.89672 33.9254 9.82999C33.9776 9.78278 34.0202 9.64439 34.0202 9.52244C34.0202 9.4005 33.9776 9.26211 33.9254 9.2149C33.8517 9.14817 33.8517 9.12907 33.9254 9.12907C33.9776 9.12907 34.0202 9.0808 34.0202 9.02179C34.0202 8.96279 33.9847 8.91451 33.9412 8.91451C33.8978 8.91451 33.8622 8.83598 33.8622 8.73993C33.8622 8.64387 33.8978 8.54546 33.9412 8.52114C34.0421 8.46478 34.0454 7.98473 33.9449 7.98473C33.8469 7.98473 33.7052 7.51855 33.7046 7.19441C33.7044 7.0548 33.6683 6.90804 33.6244 6.86834C33.5707 6.81978 33.6217 6.70391 33.7802 6.51431C33.9988 6.25275 34.016 6.18796 34.018 5.61535C34.0197 5.15597 34.0505 4.97559 34.1388 4.90929C34.204 4.8603 34.2573 4.77597 34.2573 4.7219C34.2573 4.66776 34.3818 4.50412 34.5339 4.35814C34.6861 4.21217 34.8105 4.05089 34.8105 3.99975C34.8105 3.88531 35.278 3.43644 35.3719 3.46054C35.4496 3.4805 35.7589 2.96318 35.7589 2.81335C35.7589 2.75885 35.8285 2.65721 35.9137 2.58741C35.9989 2.5176 36.0659 2.44022 36.0625 2.4154C36.0345 2.21263 36.0977 1.9804 36.2133 1.86132C36.2894 1.78293 36.3904 1.65612 36.438 1.5796C36.4855 1.50307 36.6455 1.36496 36.7936 1.27262C37.0249 1.12837 37.1314 1.10955 37.55 1.13874C38.0638 1.17457 38.6505 1.01014 38.7851 0.792498C38.8201 0.735853 38.886 0.689507 38.9314 0.689507C38.9769 0.689507 39.1085 0.629857 39.2239 0.556905C39.3393 0.483953 39.5289 0.40342 39.6454 0.377959C39.7619 0.352497 39.9088 0.284979 39.9719 0.227904C40.0522 0.155238 40.2612 0.125129 40.6689 0.127561Z" fill="#0057FF"/>
<path d="M13.9473 0.938831C13.9473 0.599818 14.5055 0.173621 15.0537 0.0940173C15.4889 0.030792 16.2882 0.0558956 16.4447 0.137717C16.7155 0.279258 17.0818 0.58251 17.1774 0.744078C17.2264 0.8269 17.2664 1.01908 17.2664 1.17113C17.2664 1.32319 17.3046 1.48218 17.3512 1.52438C17.4071 1.57495 17.4347 2.19304 17.4323 3.33939C17.4302 4.29549 17.458 5.11227 17.4941 5.15447C17.6117 5.29186 17.6387 5.51465 17.5842 5.8988C17.5475 6.15756 17.5637 6.33358 17.6357 6.4591C17.753 6.66386 17.778 7.24019 17.672 7.29941C17.6343 7.32051 17.599 7.74534 17.5935 8.24342C17.5881 8.7415 17.5481 9.18779 17.5047 9.23507C17.4613 9.28234 17.4454 9.3387 17.4692 9.36023C17.493 9.38176 17.5277 9.53761 17.5463 9.70654C17.5648 9.8754 17.6161 10.0463 17.6603 10.0863C17.7735 10.1887 17.7601 10.4849 17.6206 10.9673C17.5025 11.3761 17.5258 11.7754 17.6678 11.7754C17.7079 11.7754 17.7406 11.8295 17.7406 11.8955C17.7406 11.9615 17.7811 12.1169 17.8306 12.2408C17.9089 12.4367 17.8939 12.5141 17.7161 12.8345C17.5376 13.1562 17.5261 13.2161 17.6261 13.3065C17.6891 13.3635 17.7406 13.4589 17.7406 13.5184C17.7406 13.5778 17.7762 13.6464 17.8196 13.6707C17.8631 13.695 17.8987 13.9801 17.8987 14.3043C17.8987 14.6674 17.9351 14.9267 17.9935 14.9796C18.0672 15.0463 18.0672 15.0845 17.9935 15.1512C17.9413 15.1984 17.8979 15.3995 17.8969 15.5982C17.8957 15.8462 17.8467 16.0155 17.7406 16.1382C17.5769 16.3277 17.5257 16.8132 17.6616 16.8892C17.7051 16.9135 17.7406 17.0262 17.7406 17.1395C17.7406 17.2529 17.7762 17.3655 17.8196 17.3898C17.8631 17.4142 17.8987 17.5107 17.8987 17.6044C17.8987 17.6981 17.9342 17.7947 17.9777 17.819C18.0212 17.8433 18.0567 17.9589 18.0567 18.076C18.0567 18.3171 18.2611 18.6415 18.413 18.6415C18.5556 18.6415 18.6087 18.4756 18.5574 18.1898C18.5315 18.045 18.5494 17.9243 18.6012 17.8954C18.6494 17.8684 18.6889 17.7873 18.6889 17.7151C18.6889 17.643 18.7438 17.5649 18.8109 17.5416C18.9094 17.5074 18.9155 17.4699 18.8426 17.3466C18.7684 17.2212 18.7818 17.1577 18.9178 16.9912C19.0434 16.8375 19.0596 16.7749 18.9849 16.7316C18.8186 16.6353 18.6816 16.3669 18.7831 16.3363C18.8884 16.3045 18.8826 15.1102 18.7762 14.9382C18.7305 14.8643 18.756 14.7472 18.851 14.5939C18.9928 14.3655 18.9925 14.36 18.8286 14.2615C18.7153 14.1935 18.6836 14.1297 18.7296 14.0624C18.8388 13.9025 18.8554 13.5516 18.7588 13.4462C18.6992 13.3811 18.6955 13.3192 18.7477 13.2595C18.7907 13.2103 18.8325 12.7838 18.8405 12.3118C18.8578 11.292 18.8921 11.1317 19.0926 11.1317C19.2709 11.1317 19.2912 11.021 19.1236 10.9627C18.9753 10.9113 18.9576 10.1257 19.1 9.91924C19.1754 9.81017 19.172 9.74266 19.0839 9.59375C18.9879 9.43133 18.9884 9.39707 19.0877 9.34114C19.182 9.28807 19.1849 9.25059 19.1038 9.13222C19.0495 9.0529 19.0051 8.92509 19.0051 8.84821C19.0051 8.77132 18.9723 8.69007 18.9324 8.66776C18.8905 8.6443 18.9037 8.54424 18.9637 8.4311C19.0367 8.29327 19.0499 8.11833 19.0077 7.84168C18.9465 7.43987 18.9732 7.27001 19.1104 7.18683C19.1599 7.15686 19.1512 7.02154 19.0861 6.81106C19.0205 6.59935 19.0062 6.37405 19.0458 6.17851C19.1416 5.70554 19.1332 5.10562 19.028 4.91308C18.9746 4.8151 18.9618 4.70488 18.999 4.66276C19.0812 4.56971 19.0134 4.12255 18.9171 4.12255C18.8785 4.12255 18.847 4.07427 18.847 4.01527C18.847 3.95626 18.8826 3.90799 18.926 3.90799C18.9695 3.90799 19.0051 3.81143 19.0051 3.69342C19.0051 3.57541 18.9695 3.47886 18.926 3.47886C18.8169 3.47886 18.8261 3.28253 18.9368 3.24913C19.0005 3.22989 18.9949 3.17575 18.917 3.06217C18.8226 2.92435 18.8238 2.89295 18.926 2.83409C19.0048 2.78874 19.0115 2.76543 18.9458 2.76471C18.8762 2.764 18.847 2.61423 18.847 2.25791C18.847 1.95093 18.8858 1.71527 18.9458 1.65834C19.0002 1.60677 19.1685 1.42404 19.3199 1.25217C19.7015 0.819176 20.0883 0.50119 20.3918 0.370806C20.7283 0.226332 21.2885 0.230408 21.7102 0.380532C22.0232 0.491963 22.7946 1.0145 23.0108 1.26168C23.0726 1.33234 23.103 1.67622 23.0999 2.26935C23.0969 2.84009 23.13 3.22831 23.1899 3.32987C23.3423 3.58742 23.1824 4.6732 22.9605 4.88883C22.7505 5.09289 22.7291 5.21097 22.8596 5.4457C22.9253 5.56371 23.0094 5.71613 23.0467 5.78443C23.084 5.85274 23.1145 6.01981 23.1145 6.1557C23.1145 6.29159 23.15 6.42269 23.1935 6.44701C23.237 6.47133 23.2725 6.63225 23.2725 6.80462C23.2725 6.97698 23.237 7.13791 23.1935 7.16223C23.0859 7.22238 23.0934 7.57941 23.2042 7.67976C23.3251 7.78912 23.3184 8.31001 23.1934 8.52121C23.121 8.64365 23.1137 8.76775 23.1671 8.96386C23.2149 9.13916 23.2132 9.30688 23.1623 9.43397C23.1076 9.57072 23.1123 9.75911 23.1779 10.0462C23.2299 10.2742 23.2725 10.6375 23.2725 10.8535C23.2725 11.0695 23.314 11.2837 23.3648 11.3296C23.4751 11.4294 23.4886 12.0541 23.3818 12.1214C23.3166 12.1626 23.1145 12.9078 23.1145 13.1073C23.1145 13.1466 23.1858 13.2482 23.273 13.3329C23.419 13.4747 23.4322 13.5892 23.4386 14.7768C23.4424 15.4861 23.4778 16.0846 23.5171 16.1066C23.6088 16.1579 23.61 16.6028 23.5189 16.765C23.2382 17.2642 23.2393 17.2542 23.3942 17.8905C23.5512 18.535 23.852 18.7329 24.1833 18.4095C24.3804 18.2171 24.3878 18.1612 24.5009 16.0023C24.537 15.3133 24.5243 15.1025 24.444 15.0576C24.3618 15.0116 24.3607 14.9817 24.4388 14.911C24.5408 14.8188 24.5765 14.1952 24.4846 14.1121C24.4558 14.086 24.4197 13.961 24.4044 13.8344C24.389 13.7078 24.3441 13.5748 24.3044 13.5389C24.2608 13.4995 24.2691 13.4196 24.3253 13.3375C24.3999 13.2286 24.3948 13.1881 24.2999 13.1343C24.2021 13.0789 24.1987 13.0418 24.2801 12.9229C24.3345 12.8436 24.3789 12.5754 24.3789 12.3271C24.3789 12.0787 24.4196 11.8387 24.4693 11.7937C24.5309 11.738 24.5594 11.2867 24.5585 10.3832C24.5578 9.65254 24.5883 9.03731 24.6261 9.01614C24.7207 8.96322 24.7132 8.64702 24.616 8.59266C24.5725 8.56834 24.537 8.48602 24.537 8.40964C24.537 8.33325 24.5725 8.27081 24.616 8.27081C24.6606 8.27081 24.695 8.06833 24.695 7.80649C24.695 7.4197 24.6686 7.32737 24.537 7.25292C24.3866 7.16788 24.323 6.91483 24.4281 6.81971C24.4552 6.79525 24.4884 6.14397 24.502 5.37247C24.5187 4.42001 24.5569 3.93667 24.6211 3.86672C24.6782 3.80442 24.6998 3.63871 24.6759 3.4466C24.6482 3.22367 24.6673 3.11874 24.7404 3.09335C24.8189 3.06603 24.8437 2.83444 24.8418 2.14369C24.8401 1.54712 24.869 1.22113 24.9251 1.20418C24.9725 1.18987 25.0111 1.13831 25.0111 1.0896C25.0111 1.04082 25.1853 0.83212 25.3981 0.625851C25.7948 0.241422 26.256 0.0458108 26.7655 0.0458108C26.9976 0.0458108 27.5662 0.273823 27.7509 0.441112C27.8073 0.492036 27.8806 0.544604 27.914 0.557979C27.9473 0.571282 28.0391 0.687004 28.1177 0.8151C28.2271 0.993189 28.2481 1.12486 28.2068 1.37411C28.1636 1.63431 28.1887 1.76791 28.3305 2.03526C28.4284 2.2195 28.5346 2.43464 28.5668 2.51331C28.599 2.59199 28.6626 2.73682 28.7083 2.83516C28.9383 3.33073 29.0467 4.28162 28.8835 4.37288C28.84 4.39719 28.8044 4.50805 28.8044 4.61927C28.8044 4.73042 28.7513 4.91358 28.6864 5.0263C28.6215 5.13895 28.5681 5.32126 28.5678 5.4314C28.5676 5.54147 28.5138 5.72536 28.4483 5.83993C28.3031 6.09412 28.2685 7.24061 28.3991 7.47027C28.4482 7.55653 28.523 7.68977 28.5654 7.7663C28.6077 7.84283 28.6477 8.16789 28.6541 8.4886C28.6641 8.98481 28.6423 9.0931 28.5079 9.21469C28.3583 9.35001 28.3568 9.36939 28.4785 9.58302C28.5776 9.75696 28.613 10.0742 28.6334 10.9708C28.648 11.61 28.6868 12.133 28.7196 12.133C28.8409 12.133 28.9814 12.6916 28.9289 12.9653C28.8998 13.1172 28.8466 13.5473 28.8108 13.921C28.775 14.2947 28.7189 14.6915 28.686 14.8027C28.6525 14.9159 28.6619 15.0732 28.7072 15.1603C28.7518 15.2458 28.8467 15.4359 28.9182 15.5829C28.9895 15.73 29.1265 15.8881 29.2226 15.9344C29.6032 16.1178 29.7113 16.495 29.4564 16.7505C29.2967 16.9106 29.1206 17.3308 29.1206 17.5516C29.1206 17.635 29.085 17.7231 29.0415 17.7474C28.9981 17.7718 28.9625 17.8798 28.9625 17.9877C28.9625 18.0955 28.9243 18.2183 28.8776 18.2605C28.8173 18.3151 28.8171 18.4563 28.8766 18.748C28.9227 18.9739 28.9388 19.1905 28.9122 19.2295C28.8172 19.3686 28.7908 19.7858 28.877 19.7858C28.9897 19.7858 28.9873 20.1639 28.8741 20.2664C28.7173 20.4083 28.7768 20.9301 28.9712 21.1173C29.1306 21.2709 29.1371 21.305 29.0389 21.4709C28.9725 21.5832 28.9596 21.6737 29.0056 21.7037C29.1993 21.8296 29.2715 22.0596 29.1759 22.2461C29.1237 22.3478 29.0544 22.4313 29.0218 22.4316C28.9891 22.4318 28.9625 22.5383 28.9625 22.6681C28.9625 22.798 28.9331 22.9348 28.8972 22.9721C28.8613 23.0094 28.7859 23.1729 28.7297 23.3354C28.6417 23.5894 28.646 23.6814 28.76 23.9922C28.8918 24.3513 28.8695 24.819 28.7165 24.9046C28.6779 24.9262 28.6464 25.0063 28.6464 25.0826C28.6464 25.159 28.6108 25.2215 28.5674 25.2215C28.5239 25.2215 28.4883 25.2582 28.4883 25.3032C28.4883 25.437 28.0372 25.786 27.7999 25.8356C27.4483 25.9091 26.4336 26.5993 26.4336 26.765C26.4336 26.8039 26.212 26.9972 25.8432 27.28C25.7774 27.3304 25.572 27.4306 25.3867 27.5024C25.2001 27.5748 24.9998 27.7174 24.938 27.822C24.8766 27.9259 24.7968 28.0108 24.7607 28.0108C24.7246 28.0108 24.695 28.1717 24.695 28.3684C24.695 28.6228 24.6522 28.7648 24.5468 28.8602C24.4653 28.934 24.3519 29.1592 24.2947 29.3609C24.2377 29.5624 24.1621 29.7273 24.1269 29.7273C24.0027 29.7273 24.0646 30.0338 24.2122 30.1497C24.2944 30.2141 24.4008 30.3949 24.4488 30.5514C24.5578 30.9069 24.5641 31.6584 24.4579 31.6584C24.357 31.6584 24.3541 31.9937 24.4545 32.0499C24.4962 32.0732 24.5271 32.1797 24.5233 32.2866C24.5195 32.3935 24.5238 33.0628 24.5329 33.774C24.5481 34.9665 24.5366 35.0878 24.3851 35.3318C24.2476 35.5533 24.2209 35.7196 24.2209 36.3504C24.2209 36.9251 24.249 37.1298 24.3394 37.2116C24.4046 37.2706 24.4579 37.3798 24.4579 37.4543C24.4579 37.5288 24.5372 37.6281 24.6341 37.6751C24.8278 37.7689 25.0111 37.9189 25.0111 37.9836C25.0111 38.0063 24.8689 38.0765 24.695 38.1395C24.4873 38.2148 24.3789 38.2989 24.3789 38.3851C24.3789 38.4571 24.3433 38.536 24.2999 38.5603C24.197 38.6179 24.197 39.2894 24.2999 39.347C24.3433 39.3713 24.3789 39.5162 24.3789 39.6689C24.3789 39.8216 24.4176 39.9681 24.4648 39.9946C24.5267 40.0292 24.5267 40.0644 24.4648 40.1204C24.4176 40.1632 24.3789 40.2882 24.3789 40.3984C24.3789 40.5085 24.3455 40.5987 24.3045 40.5987C24.2637 40.5987 24.277 40.6802 24.3341 40.7798C24.3962 40.8882 24.4222 41.0871 24.3988 41.2751C24.3684 41.5194 24.397 41.6366 24.5273 41.8023C24.7389 42.0711 24.7375 42.0981 24.4939 42.4931C24.3833 42.6724 24.3143 42.8505 24.3405 42.889C24.3667 42.9274 24.3505 42.9589 24.3045 42.9589C24.1865 42.9589 24.1979 43.7677 24.3174 43.8759C24.3767 43.9296 24.414 44.1748 24.414 44.5107C24.414 44.8784 24.3823 45.0678 24.3174 45.0873C24.1546 45.1364 24.1994 45.8267 24.3789 46.0343C24.4639 46.1326 24.5343 46.2386 24.5352 46.2698C24.5362 46.3009 24.6053 46.3928 24.6889 46.474C24.8345 46.6153 24.8351 46.6312 24.7051 46.8465C24.6303 46.9702 24.5227 47.2162 24.4658 47.3932C24.4089 47.5702 24.3306 47.789 24.2917 47.8794C24.184 48.1293 24.2055 48.2968 24.3786 48.5537C24.5577 48.8196 24.5819 49.118 24.4409 49.3224C24.3649 49.4325 24.3668 49.5165 24.45 49.7247C24.5285 49.9212 24.5344 50.053 24.473 50.2461C24.2193 51.0445 24.208 52.0485 24.448 52.4545C24.4939 52.5321 24.514 52.6112 24.4928 52.6305C24.4715 52.6497 24.5084 52.7061 24.5746 52.7559C24.6408 52.8057 24.695 52.9018 24.695 52.9696C24.695 53.0374 24.7661 53.1511 24.8531 53.2222C24.94 53.2934 25.0111 53.4008 25.0111 53.4607C25.0111 53.6261 24.8298 54.0447 24.7582 54.0447C24.7235 54.0447 24.695 54.1256 24.695 54.2245C24.695 54.3234 24.6655 54.4602 24.6296 54.5285C24.5935 54.5968 24.4899 54.7893 24.3993 54.9562C24.3087 55.1232 24.267 55.278 24.3067 55.3002C24.3464 55.3224 24.3789 55.5478 24.3789 55.8012C24.3789 56.0606 24.4134 56.2619 24.4579 56.2619C24.5031 56.2619 24.537 56.4753 24.537 56.7592C24.537 57.0327 24.5794 57.3408 24.6313 57.444C24.7045 57.5893 24.7045 57.6622 24.6313 57.7682C24.5794 57.8434 24.537 57.9534 24.537 58.0126C24.537 58.0718 24.4658 58.1605 24.3789 58.2096C24.292 58.2587 24.2209 58.3395 24.2209 58.389C24.2209 58.4385 24.1803 58.4791 24.1308 58.4791C24.0675 58.4791 24.0581 58.5904 24.0992 58.8546C24.1641 59.2723 24.1639 59.3138 24.094 59.7548C24.0638 59.9458 24.0787 60.0956 24.1329 60.1446C24.1813 60.1884 24.2209 60.2821 24.2209 60.353C24.2209 60.4238 24.2477 60.4817 24.2806 60.4817C24.3135 60.4817 24.3893 60.5818 24.4492 60.7041C24.544 60.8982 24.5413 60.9582 24.4276 61.1739C24.3016 61.413 24.3037 61.4309 24.4893 61.7126C24.6477 61.9529 24.6663 62.034 24.5955 62.1746C24.5322 62.3002 24.534 62.3672 24.6023 62.429C24.7192 62.5348 24.7239 62.8419 24.6086 62.8419C24.5209 62.8419 24.5464 63.3503 24.6577 63.8215C24.6986 63.9945 24.6712 64.1018 24.5453 64.2618C24.4285 64.4102 24.3789 64.5818 24.3789 64.8377V65.2021H24.6433C24.9808 65.2021 25.2417 65.4304 25.0914 65.5941C24.9724 65.7239 24.6068 65.7374 24.4737 65.617C24.4 65.5502 24.3789 65.5969 24.3789 65.8273C24.3789 65.9902 24.3452 66.1424 24.3038 66.1655C24.2611 66.1894 24.297 66.3121 24.3876 66.451C24.5284 66.6669 24.5355 66.7278 24.4502 66.9854C24.3633 67.2478 24.372 67.3079 24.5399 67.6033C24.6927 67.8722 24.709 67.9548 24.6314 68.0673C24.5795 68.1425 24.537 68.2518 24.537 68.3102C24.537 68.3685 24.4643 68.5333 24.3756 68.6763C24.2316 68.9082 24.216 69.046 24.23 69.9544C24.2461 70.9915 24.2199 71.1384 24.0186 71.1384C23.956 71.1384 23.9047 71.1695 23.9047 71.2075C23.9047 71.295 23.341 71.8537 23.2528 71.8537C23.1934 71.8537 22.737 72.1214 22.6403 72.2129C22.224 72.6071 20.524 72.9503 19.2816 72.8909C18.0972 72.8344 17.1979 72.8502 16.7202 72.9361C16.2201 73.026 15.9013 72.9911 15.4783 72.8002C15.31 72.7242 14.8877 72.5329 14.54 72.375C14.1923 72.2171 13.81 72.0668 13.6905 72.041C13.5709 72.0152 13.4731 71.9456 13.4731 71.8866C13.4731 71.8274 13.3856 71.7429 13.2786 71.6988C13.0497 71.6045 12.6829 71.1308 12.6829 70.9296C12.6829 70.8524 12.6473 70.7694 12.6038 70.7451C12.5604 70.7207 12.5248 70.5598 12.5248 70.3875C12.5248 70.2151 12.4892 70.0542 12.4458 70.0299C12.4018 70.0052 12.3668 69.6748 12.3668 69.2843C12.3668 68.6797 12.3897 68.5566 12.5331 68.3916C12.6771 68.2259 12.6868 68.1727 12.6055 67.9951C12.537 67.8454 12.5348 67.7507 12.5972 67.645C12.7048 67.4632 12.7093 66.9419 12.6038 66.8829C12.5604 66.8586 12.5248 66.7344 12.5248 66.6069C12.5248 66.4794 12.4908 66.3443 12.4493 66.3068C12.4078 66.2692 12.3543 65.8685 12.3306 65.4163C12.2265 63.4401 12.2042 63.2607 12.0428 63.104C11.9508 63.0145 11.9105 62.91 11.9429 62.8444C11.9728 62.7841 12.0129 62.6138 12.0322 62.466C12.0516 62.3182 12.0992 62.1796 12.138 62.1578C12.1769 62.1361 12.2087 61.9271 12.2087 61.6933C12.2087 61.4596 12.2353 61.2681 12.268 61.2679C12.3006 61.2676 12.3717 61.1807 12.426 61.0748C12.5329 60.8665 12.5627 60.1956 12.4651 60.1956C12.3973 60.1956 12.2683 59.9361 12.1274 59.5162C12.0746 59.3588 12.0054 59.1822 11.9738 59.1238C11.9409 59.0629 11.9811 58.913 12.068 58.773C12.1604 58.624 12.2014 58.4628 12.173 58.3601C12.1472 58.267 12.1801 58.0977 12.2466 57.9814C12.3918 57.7271 12.4007 57.4535 12.2699 57.264C12.1991 57.1614 12.1967 57.1024 12.2606 57.0446C12.3246 56.9866 12.32 56.914 12.2435 56.7746C12.1637 56.6291 12.156 56.4602 12.2112 56.0639C12.2511 55.7779 12.3171 55.4875 12.3579 55.4186C12.3987 55.3497 12.4222 55.1169 12.4102 54.9014C12.3981 54.6859 12.4222 54.4706 12.4637 54.4229C12.5052 54.3753 12.5186 54.1339 12.4934 53.8865C12.4359 53.3217 12.4359 53.2447 12.4934 52.7322C12.5231 52.4679 12.5084 52.2847 12.4535 52.2351C12.341 52.1333 12.3403 51.0405 12.4527 50.7773C12.4999 50.6665 12.5299 50.2863 12.5194 49.9322C12.5088 49.5782 12.5046 49.015 12.5098 48.6806C12.5175 48.1982 12.4865 48.0153 12.3598 47.7949C12.2194 47.5506 12.2106 47.473 12.2866 47.1521C12.3461 46.901 12.3475 46.7795 12.2909 46.7624C12.1876 46.7312 12.1817 46.1262 12.2845 46.0939C12.3261 46.0808 12.3788 45.7965 12.4015 45.4621C12.4243 45.1278 12.4592 44.7817 12.4793 44.6933C12.4994 44.6048 12.4822 44.5323 12.4413 44.5323C12.4003 44.5323 12.3668 44.4055 12.3668 44.2505C12.3668 44.0954 12.3291 43.9476 12.2832 43.9219C12.1893 43.8694 12.218 43.3334 12.3229 43.1798C12.3604 43.125 12.3872 42.7764 12.3826 42.4052C12.3776 42.0012 12.4113 41.6765 12.4666 41.5965C12.5372 41.494 12.5363 41.4063 12.4628 41.2222C12.41 41.0901 12.3668 40.8814 12.3668 40.7587C12.3668 40.636 12.3271 40.5134 12.2786 40.4863C12.1596 40.4197 12.316 39.2822 12.4676 39.1116C12.525 39.0469 12.5222 38.9942 12.4583 38.9363C12.4079 38.8908 12.3668 38.7814 12.3668 38.6932C12.3668 38.6051 12.3312 38.5131 12.2877 38.4888C12.2443 38.4644 12.2087 38.3357 12.2087 38.2027C12.2087 38.0696 12.2443 37.9409 12.2877 37.9166C12.3312 37.8923 12.3668 37.7635 12.3668 37.6305C12.3668 37.4975 12.4023 37.3687 12.4458 37.3444C12.4894 37.32 12.5248 36.9994 12.5248 36.6292C12.5248 36.259 12.4894 35.9384 12.4458 35.914C12.4023 35.8897 12.3668 35.7609 12.3668 35.6279C12.3668 35.4949 12.3295 35.3651 12.2839 35.3397C12.227 35.3078 12.2294 35.2623 12.2916 35.1945C12.3601 35.1199 12.3563 35.0431 12.2761 34.8791C12.2178 34.7599 12.1433 34.6623 12.1104 34.6623C12.0775 34.6623 12.0506 34.5999 12.0506 34.5235C12.0506 34.4471 12.0196 34.3673 11.9817 34.3461C11.9437 34.3249 11.9095 34.163 11.9056 33.9864C11.9004 33.7538 11.9358 33.6454 12.0338 33.5937C12.1608 33.5267 12.1606 33.5222 12.0309 33.5201C11.8803 33.5178 11.845 33.41 11.9716 33.3392C12.0151 33.3149 12.0506 33.2183 12.0506 33.1246C12.0506 33.0309 12.0862 32.9344 12.1297 32.9101C12.1731 32.8857 12.2087 32.7417 12.2087 32.5899C12.2087 32.4382 12.2448 32.3031 12.289 32.2898C12.4003 32.2563 12.4052 30.9906 12.2942 30.9571C12.1968 30.9277 12.1758 30.6571 12.2709 30.6571C12.3051 30.6571 12.3391 30.5852 12.3464 30.4975C12.3537 30.4097 12.4041 30.2628 12.4582 30.1712C12.5373 30.0375 12.5367 29.9755 12.4553 29.8575C12.3825 29.7521 12.378 29.6886 12.4393 29.6331C12.5556 29.5279 12.5513 29.275 12.4343 29.3404C12.3702 29.3762 12.3592 29.3305 12.3963 29.1837C12.4995 28.7756 12.5344 28.3684 12.4661 28.3684C12.4279 28.3684 12.3491 28.1995 12.2908 27.9929C12.2326 27.7864 12.1103 27.5617 12.019 27.4936C11.9278 27.4255 11.8101 27.337 11.7576 27.297C11.7051 27.2568 11.5717 27.2241 11.4613 27.2241C11.3205 27.2241 11.2604 27.1855 11.2604 27.0953C11.2604 26.9282 11.1098 26.795 10.9209 26.795C10.8385 26.795 10.6688 26.729 10.5438 26.6485C10.4188 26.5679 10.1289 26.474 9.89944 26.4396C9.29883 26.3498 9.24517 26.3202 9.04523 25.9683C8.94597 25.7936 8.83471 25.6506 8.79812 25.6506C8.76145 25.6506 8.73149 25.6023 8.73149 25.5433C8.73149 25.4843 8.69593 25.436 8.65247 25.436C8.609 25.436 8.57344 25.3717 8.57344 25.293C8.57344 25.2143 8.53788 25.15 8.49441 25.15C8.45095 25.15 8.41539 25.0289 8.41539 24.8811C8.41539 24.6866 8.3701 24.5866 8.2518 24.5197C8.14076 24.457 8.09469 24.3654 8.10845 24.2343C8.12883 24.0397 7.94897 23.5049 7.86322 23.5049C7.7947 23.5049 7.81264 22.0956 7.88195 22.0328C7.97584 21.9478 7.95086 21.7324 7.84244 21.6925C7.76602 21.6645 7.76823 21.6407 7.85232 21.5875C7.91206 21.5496 7.96098 21.4282 7.96098 21.3176C7.96098 21.2071 8.0099 21.0724 8.06964 21.0183C8.14069 20.954 8.16392 20.8287 8.13658 20.6568C8.11358 20.5121 8.08276 20.2401 8.06798 20.0522C8.0521 19.8498 7.98208 19.6516 7.89594 19.5655C7.77645 19.4459 7.7676 19.3957 7.84591 19.2822C7.96201 19.114 7.9722 18.713 7.86053 18.713C7.81612 18.713 7.73978 18.6335 7.69086 18.5363C7.62203 18.3997 7.62574 18.3336 7.70722 18.2447C7.77811 18.1674 7.78538 18.1142 7.72943 18.0817C7.63926 18.0295 7.63744 17.438 7.72706 17.3069C7.75724 17.2626 7.78617 17.0218 7.79131 16.7717C7.79803 16.4396 7.83951 16.2785 7.94509 16.174C8.10181 16.0189 8.10718 15.5622 7.95821 15.0526C7.91593 14.9078 7.90708 14.6622 7.93846 14.5067C7.96991 14.3512 7.97994 14.1274 7.96082 14.0094C7.94169 13.8915 7.96501 13.7731 8.01266 13.7464C8.06031 13.7198 8.09928 13.5566 8.09928 13.3838C8.09928 13.2109 8.14069 12.9872 8.19126 12.8868C8.25923 12.7519 8.26041 12.662 8.19593 12.5436C8.1478 12.4555 8.08434 12.2707 8.05486 12.133C8.02538 11.9953 7.94833 11.789 7.88369 11.6746C7.78648 11.5026 7.78261 11.416 7.8614 11.174C7.9138 11.013 7.98872 10.8255 8.02791 10.7572C8.06719 10.6889 8.09928 10.5516 8.09928 10.4522C8.09928 10.3528 8.1414 10.2104 8.19292 10.1357C8.26508 10.0312 8.26508 9.9352 8.19292 9.7172C8.07865 9.37196 8.07106 8.93876 8.1783 8.87875C8.29052 8.81595 8.27638 8.22518 8.15855 8.0531C8.08489 7.9456 8.08292 7.89575 8.15056 7.85735C8.25433 7.79855 8.2827 5.69603 8.17973 5.69603C8.14598 5.69603 8.15412 5.54447 8.19782 5.3593C8.2563 5.11091 8.2529 5.01521 8.18494 4.99476C8.11476 4.97359 8.11469 4.94291 8.1847 4.86659C8.25109 4.79414 8.25204 4.76625 8.18795 4.76625C8.07249 4.76625 8.07138 4.21817 8.18676 4.15359C8.24397 4.12155 8.24666 4.08922 8.19442 4.05997C8.05976 3.98451 8.0487 3.48079 8.17996 3.39839C8.26824 3.34289 8.27266 3.31607 8.19806 3.28868C8.08055 3.24548 8.06284 2.69212 8.17894 2.69212C8.2273 2.69212 8.22145 2.63819 8.164 2.55487C8.0894 2.4468 8.09129 2.39358 8.17301 2.30454C8.24224 2.22901 8.24722 2.19146 8.18795 2.19146C8.1316 2.19146 8.09928 2.02432 8.09928 1.73294C8.09928 1.30874 8.11745 1.26054 8.34245 1.08924C8.47616 0.987394 8.65397 0.904072 8.73758 0.904072C8.82119 0.904072 8.88955 0.872603 8.88955 0.834196C8.88955 0.743649 9.21704 0.550039 9.43429 0.512204C9.52738 0.495968 9.6588 0.432671 9.72637 0.37152C9.79394 0.310369 9.95563 0.260376 10.0858 0.260376C10.2159 0.260376 10.3823 0.232196 10.4556 0.197723C10.7849 0.0426633 11.7345 0.507699 11.7345 0.823968C11.7345 0.908435 11.7701 1.04147 11.8136 1.11964L11.97 1.40144C12.0205 1.49263 12.0205 1.55621 11.97 1.58446C11.8647 1.64332 11.8722 2.02332 11.9824 2.2097C12.0424 2.31126 12.0683 2.85554 12.0604 3.85005C12.0526 4.81517 12.0766 5.33842 12.1286 5.33842C12.1727 5.33842 12.2087 5.39635 12.2087 5.46716C12.2087 5.53797 12.2514 5.63452 12.3035 5.68172C12.3773 5.74845 12.3773 5.78665 12.3035 5.85338C12.1886 5.95737 12.1779 6.31405 12.2877 6.37549C12.3856 6.43027 12.3932 6.9119 12.2962 6.9119C12.1576 6.9119 12.1282 7.1495 12.2464 7.31285C12.3803 7.49781 12.4113 8.05625 12.2877 8.05625C12.1404 8.05625 12.2019 8.72376 12.3668 8.91451C12.5286 9.10175 12.5818 9.48668 12.4458 9.48668C12.4023 9.48668 12.3668 9.54912 12.3668 9.62551C12.3668 9.70189 12.4023 9.78421 12.4458 9.80853C12.4892 9.83285 12.5248 10.1064 12.5248 10.4165C12.5248 10.7265 12.4892 11.0001 12.4458 11.0244C12.4023 11.0487 12.3668 11.1263 12.3668 11.1968C12.3668 11.2674 12.2576 11.4284 12.1241 11.5547C11.9547 11.7153 11.9051 11.8101 11.9594 11.8694C12.0024 11.9161 12.0557 12.2118 12.0781 12.5264C12.1384 13.37 12.2047 13.7088 12.3735 14.033C12.5339 14.3412 12.5785 14.9555 12.4458 15.0296C12.3412 15.0881 12.3442 15.517 12.4499 15.6127C12.508 15.6652 12.5054 15.787 12.4413 16.0175C12.3909 16.1988 12.3712 16.4852 12.3977 16.654C12.4241 16.8227 12.4651 17.1536 12.4887 17.3893C12.5123 17.6251 12.5657 17.8488 12.6072 17.8864C12.6488 17.924 12.6829 18.0128 12.6829 18.0836C12.6829 18.1767 12.7432 18.2121 12.9002 18.2113C13.0198 18.2106 13.1531 18.1865 13.1965 18.1576C13.3215 18.0745 13.4418 17.6991 13.4313 17.4256C13.4052 16.7507 13.385 16.6409 13.2677 16.5347C13.182 16.4571 13.166 16.3922 13.2182 16.3329C13.4174 16.1064 13.4777 14.2743 13.3488 12.3605C13.3107 11.7933 13.3211 11.5268 13.3838 11.4701C13.4337 11.4249 13.4731 11.1617 13.4731 10.873C13.4731 10.5357 13.5059 10.3469 13.5678 10.3283C13.6402 10.3065 13.6382 10.2469 13.5592 10.0742C13.4803 9.90187 13.4766 9.79509 13.5435 9.62129C13.5918 9.4962 13.6312 9.04646 13.6312 8.62198C13.6312 8.193 13.6657 7.83081 13.709 7.80664C13.8106 7.74978 13.7715 7.44059 13.623 7.12647C13.4994 6.86477 13.4746 6.08211 13.5848 5.92061C13.6197 5.86954 13.6043 5.68573 13.5506 5.51208C13.4734 5.26254 13.4732 5.17421 13.5499 5.09053C13.6267 5.00685 13.6254 4.90893 13.5439 4.62099C13.4631 4.33569 13.4614 4.22747 13.536 4.11933C13.6517 3.95161 13.6653 2.71965 13.5522 2.65635C13.5087 2.63204 13.4731 2.47111 13.4731 2.29875C13.4731 2.12638 13.5087 1.96545 13.5522 1.94114C13.6639 1.87863 13.6504 1.63932 13.5324 1.58947C13.4534 1.55614 13.4534 1.5394 13.5324 1.50607C13.5868 1.48311 13.6312 1.41874 13.6312 1.36303C13.6312 1.30724 13.6668 1.26168 13.7102 1.26168C13.7537 1.26168 13.7892 1.2134 13.7892 1.1544C13.7892 1.09539 13.8248 1.04712 13.8683 1.04712C13.9117 1.04712 13.9473 0.998409 13.9473 0.938831Z" fill="#0057FF"/>
<path d="M0.986816 16.6434C0.986816 16.5295 1.03131 16.4224 1.0856 16.4054C1.13997 16.3885 1.28214 16.4051 1.40171 16.4422C1.55882 16.4911 1.61904 16.558 1.61904 16.6839C1.61904 16.8849 1.46572 16.9595 1.18423 16.8956C1.03052 16.8606 0.986816 16.8048 0.986816 16.6434Z" fill="#0057FF"/>
<path d="M29.1831 28.0655C29.1127 28.0442 29.1179 28.0064 29.2029 27.9213C29.2775 27.8468 29.3878 27.8204 29.5157 27.8468C29.9457 27.9354 30.0317 28.1504 29.7129 28.3395C29.5533 28.4341 29.492 28.4397 29.3968 28.3681C29.3318 28.3193 29.2786 28.2378 29.2786 28.1868C29.2786 28.1359 29.2356 28.0813 29.1831 28.0655Z" fill="#0057FF"/>
<path d="M52.2888 35.6454C52.0328 35.5048 51.9054 35.2008 52.0407 35.0533C52.1551 34.9285 52.397 34.9194 52.738 35.027C52.9489 35.0935 52.9868 35.1413 52.9868 35.3402C52.9868 35.5352 52.9454 35.5903 52.7412 35.6669C52.5326 35.745 52.4644 35.7418 52.2888 35.6454Z" fill="#0057FF"/>
<path d="M39.1175 35.6324C39.2479 35.5805 39.4079 35.5192 39.4731 35.4964C39.7527 35.3984 40.2772 35.4998 40.4714 35.6893C40.5779 35.7932 40.7079 35.8805 40.7605 35.8833C40.8131 35.8861 41.3896 35.8844 42.0415 35.8796C46.4351 35.8475 47.2199 35.8622 47.7425 35.9862C48.2151 36.0984 48.5613 36.239 48.5613 36.3189C48.5613 36.3518 48.6109 36.3789 48.6715 36.3789C48.7321 36.3789 48.8655 36.4618 48.9679 36.5632C49.0702 36.6645 49.2194 36.8064 49.2993 36.8784C49.5748 37.1266 49.8257 37.6763 49.8257 38.0317C49.8257 38.2195 49.7902 38.3929 49.7467 38.4172C49.7032 38.4416 49.6677 38.5985 49.6677 38.7662C49.6677 39.0021 49.623 39.106 49.4701 39.2264C49.207 39.4334 49.2269 39.5887 49.5294 39.6898C49.6938 39.7446 49.7228 40.2346 49.5743 40.4497C49.5022 40.5543 49.5042 40.6788 49.5836 40.9995C49.6399 41.2275 49.7264 41.4762 49.7757 41.5521C49.8441 41.6575 49.8419 41.6978 49.7665 41.7225C49.6316 41.7667 49.6462 42.1762 49.7887 42.3467C49.9353 42.5222 49.9368 42.7426 49.7924 42.929C49.7307 43.0089 49.6351 43.2716 49.58 43.5131C49.4899 43.9081 49.4943 43.9763 49.6244 44.195C49.7812 44.4585 49.7439 44.9615 49.5675 44.9615C49.5163 44.9615 49.5535 45.0116 49.65 45.0728C49.9189 45.2433 49.8478 45.7471 49.5312 45.9159C49.4442 45.9623 49.4305 46.0598 49.4723 46.3352C49.5094 46.5796 49.4938 46.7498 49.4232 46.8692C49.3418 47.0071 49.3399 47.0738 49.4146 47.1821C49.5536 47.3835 49.531 47.593 49.3516 47.7673C49.179 47.9349 49.1491 48.0369 49.2725 48.0369C49.316 48.0369 49.3516 48.21 49.3516 48.4216C49.3516 48.6812 49.3912 48.836 49.4737 48.8979C49.5417 48.949 49.5739 49.04 49.5465 49.1033C49.4557 49.3124 49.504 50.4928 49.6056 50.5497C49.6681 50.5847 49.697 50.7886 49.6895 51.1425C49.6832 51.4391 49.7113 51.7005 49.7519 51.7232C49.7925 51.7459 49.8257 51.8591 49.8257 51.9748C49.8257 52.0905 49.8528 52.1852 49.8857 52.1852C49.9187 52.1852 49.9926 52.2531 50.0498 52.336C50.1797 52.5241 50.0449 52.8732 49.8172 52.9386C49.6573 52.9845 49.6164 53.1494 49.7467 53.2222C49.8698 53.2911 49.8404 53.4313 49.6677 53.5992C49.4654 53.7956 49.4688 53.8677 49.6867 54.0058L49.8639 54.1181L49.6729 54.444C49.5053 54.7298 49.4933 54.7985 49.5747 55.0024C49.6884 55.2871 49.695 55.5945 49.5886 55.654C49.5452 55.6783 49.5096 55.8231 49.5096 55.9758C49.5096 56.1285 49.474 56.2734 49.4306 56.2977C49.2617 56.3922 49.3629 56.6786 49.6677 56.9685C49.9492 57.2364 49.9838 57.3079 49.9838 57.6238C49.9838 57.8189 49.9482 57.9784 49.9048 57.9784C49.8613 57.9784 49.8257 58.02 49.8257 58.0708C49.8257 58.1216 49.6835 58.2815 49.5096 58.4262C49.1455 58.7292 49.0771 59.0613 49.3516 59.1943C49.4729 59.2531 49.5096 59.3441 49.5096 59.586C49.5096 59.7593 49.4768 59.9195 49.4367 59.9419C49.3965 59.9643 49.4534 60.1279 49.563 60.3053C49.6726 60.4828 49.7437 60.6717 49.7211 60.7249C49.6985 60.7782 49.715 60.8535 49.7577 60.8922C49.8086 60.9382 49.7792 61.053 49.6725 61.2249C49.5526 61.4181 49.5096 61.6152 49.5096 61.9715C49.5096 62.2481 49.4696 62.4919 49.4164 62.5401C49.3448 62.6049 49.3478 62.6661 49.4294 62.8041C49.5136 62.9466 49.5161 63.0225 49.4413 63.1711C49.3688 63.3152 49.3685 63.3821 49.4401 63.4602C49.5118 63.5384 49.5099 63.6257 49.4319 63.8398C49.3537 64.0541 49.349 64.2708 49.4117 64.7852C49.5012 65.521 49.501 65.8775 49.4108 65.959C49.3783 65.9886 49.3516 66.2094 49.3516 66.4498C49.3516 66.8355 49.3794 66.9144 49.5886 67.1217C49.8607 67.3912 49.8554 67.3707 49.7325 67.6782C49.6589 67.8625 49.6617 67.973 49.7459 68.204C49.8274 68.4273 49.8307 68.5162 49.7601 68.5801C49.7092 68.6262 49.6677 68.8374 49.6677 69.0497C49.6677 69.3976 49.5235 69.719 49.2762 69.9226C49.1408 70.0341 49.0259 70.3549 49.0732 70.4897C49.1067 70.5853 49.0796 70.7111 49.0025 70.8176C48.9337 70.9126 48.8774 71.0671 48.8774 71.1608C48.8774 71.2905 48.8018 71.3622 48.5613 71.4603C48.3874 71.5312 48.2452 71.6283 48.2452 71.6759C48.2452 71.822 46.9949 72.9265 46.8295 72.9265C46.745 72.9265 46.6289 72.9668 46.5715 73.0159C46.0902 73.4279 45.4776 73.4045 44.1358 72.9228C43.7481 72.7837 43.5343 72.7651 42.1601 72.7514C40.8249 72.7381 40.5293 72.7138 39.9473 72.5694C39.2511 72.3967 39.0212 72.2691 38.3673 71.6927C38.1553 71.5059 37.944 71.353 37.8977 71.353C37.8514 71.353 37.8136 71.3031 37.8136 71.242C37.8136 71.1809 37.7039 71.0964 37.5699 71.0541C37.3923 70.9981 37.3363 70.9424 37.3633 70.8486C37.3889 70.76 37.3661 70.732 37.2898 70.7584C37.1991 70.79 37.1828 70.6851 37.1999 70.181C37.2115 69.8422 37.2476 69.565 37.2801 69.565C37.3684 69.565 37.3518 69.2943 37.2604 69.2431C37.153 69.1831 37.1587 68.5637 37.2666 68.5637C37.3566 68.5637 37.3259 67.7344 37.2195 67.2941C37.1825 67.1407 37.1933 67.0617 37.2514 67.0617C37.3668 67.0617 37.3667 66.5097 37.2513 66.4749C37.2012 66.4598 37.1631 66.2845 37.1631 66.0695C37.1631 65.8611 37.2028 65.6548 37.2513 65.6109C37.3763 65.4977 37.3604 65.2824 37.2174 65.153C37.1259 65.0702 37.1084 64.9641 37.1474 64.729C37.1852 64.5003 37.1725 64.4154 37.1003 64.4154C37.0257 64.4154 37.0152 64.3133 37.0578 64.0041C37.089 63.778 37.1308 63.273 37.1507 62.882C37.1706 62.491 37.2227 62.1321 37.2664 62.0844C37.3634 61.9786 37.3499 60.496 37.2514 60.4409C37.1435 60.3806 37.1678 59.8545 37.2801 59.8171C37.3592 59.7909 37.3592 59.7654 37.2801 59.6896C37.2258 59.6375 37.1813 59.4752 37.1813 59.329C37.1813 59.1813 37.2252 59.0488 37.2801 59.0308C37.3592 59.0049 37.3592 58.9682 37.2801 58.847C37.1545 58.6544 37.152 58.1766 37.2762 58.0643C37.3499 57.9975 37.3499 57.9784 37.2762 57.9784C37.1618 57.9784 37.1485 57.6476 37.2604 57.5851C37.3038 57.5607 37.3394 57.4462 37.3394 57.3305C37.3394 57.2148 37.3038 57.1202 37.2604 57.1202C37.1402 57.1202 37.1591 56.139 37.2801 56.0945C37.3567 56.0664 37.3546 56.0428 37.2706 55.9896C37.202 55.9461 37.1686 55.8069 37.1793 55.6087C37.1885 55.4369 37.1965 55.2239 37.1971 55.1354C37.1976 55.047 37.2299 54.9745 37.2687 54.9745C37.3641 54.9745 37.3592 54.5649 37.2634 54.5113C37.2158 54.4847 37.2216 54.4007 37.2786 54.2874C37.3493 54.1469 37.3477 54.0936 37.2714 54.051C37.1851 54.0026 37.1636 53.7608 37.187 53.0985C37.1894 53.0304 37.2247 52.9561 37.2654 52.9334C37.3644 52.8779 37.3603 52.6143 37.2604 52.6143C37.2169 52.6143 37.1813 52.4392 37.1813 52.2252C37.1813 52.0111 37.1458 51.8161 37.1023 51.7918C36.9624 51.7135 37.014 51.2585 37.1813 51.0959C37.3472 50.9348 37.3954 50.6832 37.2604 50.6832C37.2169 50.6832 37.1813 50.6047 37.1813 50.5086C37.1813 50.4126 37.1458 50.3142 37.1023 50.2898C37.0099 50.2381 36.9937 49.3958 37.0852 49.3958C37.1191 49.3958 37.155 49.2286 37.1648 49.0242C37.1747 48.8198 37.2099 48.6347 37.243 48.6129C37.3381 48.5504 37.3566 47.1252 37.2629 47.0728C37.218 47.0477 37.1813 46.9183 37.1813 46.7853C37.1813 46.6523 37.1458 46.5235 37.1023 46.4992C37.0588 46.4749 37.0233 46.3604 37.0233 46.2447C37.0233 46.1289 36.9877 46.0343 36.9443 46.0343C36.9008 46.0343 36.8652 45.9373 36.8652 45.8187C36.8652 45.7002 36.8208 45.5351 36.7664 45.4518C36.6874 45.3307 36.6874 45.2939 36.7664 45.268C36.8208 45.2502 36.8656 45.1498 36.8659 45.0449C36.8664 44.919 36.9469 44.7968 37.103 44.6852C37.3783 44.4884 37.4031 44.3039 37.1813 44.1032C36.9832 43.9239 36.9815 43.7457 37.1748 43.4343C37.284 43.2583 37.3023 43.1684 37.2403 43.1124C37.1321 43.0144 37.1444 42.32 37.2562 42.2188C37.3653 42.1201 37.3626 41.8642 37.2514 41.7635C37.203 41.7197 37.1773 41.5523 37.1942 41.3916C37.2111 41.2308 37.1997 41.0993 37.1686 41.0993C37.092 41.0993 37.1728 40.6024 37.2827 40.3975C37.3498 40.2722 37.3472 40.1973 37.2718 40.088C37.1915 39.9716 37.1919 39.9223 37.2741 39.8327C37.4036 39.6915 37.3785 37.9435 37.2426 37.6352C37.1713 37.4735 37.1719 37.4188 37.2447 37.3968C37.3009 37.3799 37.3394 37.2271 37.3394 37.0208C37.3394 36.8297 37.375 36.6535 37.4184 36.6292C37.4619 36.6049 37.4975 36.5054 37.4975 36.4082C37.4975 36.3046 37.5547 36.2127 37.6357 36.1862C37.7119 36.1614 37.8633 36.0852 37.9723 36.017C38.0814 35.9488 38.3303 35.8556 38.5255 35.8099C38.7207 35.7642 38.9871 35.6843 39.1175 35.6324Z" fill="#0057FF"/>
<path d="M25.8092 50.3636C25.9504 50.4041 25.9672 50.3889 25.9224 50.2612C25.8653 50.0981 25.8955 50.0887 26.2633 50.1553C26.7401 50.2416 26.6484 50.6832 26.1538 50.6832C25.7882 50.6832 25.6433 50.6188 25.6433 50.4562C25.6433 50.3464 25.6792 50.3263 25.8092 50.3636Z" fill="#0057FF"/>
<path d="M17.3436 77.9339C17.0267 78.0874 16.8171 77.9586 16.9638 77.7006C17.0029 77.6317 17.1184 77.5754 17.2205 77.5754C17.4623 77.5754 17.5509 77.8335 17.3436 77.9339Z" fill="#0057FF"/>
</svg>
