<svg width="62" height="53" viewBox="0 0 62 53" fill="none" xmlns="http://www.w3.org/2000/svg">
<path fill-rule="evenodd" clip-rule="evenodd" d="M0.975231 18.8728C1.22433 19.7718 1.43116 19.9099 10.5854 25.2944C17.1165 29.1359 18.8495 30.2603 19.0056 30.7586C19.1717 31.2885 18.8351 32.0261 16.8413 35.5C14.928 38.8338 14.4664 39.8277 14.4071 40.7404C14.0764 45.8428 15.7079 49.5043 19.2051 51.5073C21.4741 52.8068 22.9886 52.923 26.0481 52.0316C29.0422 51.1591 31.8087 49.1689 33.6028 46.5964C34.3651 45.5032 35.4963 41.9412 35.6531 40.1401C35.8292 38.1199 34.7983 33.6025 33.782 31.9408C32.8225 30.3721 32.7587 30.324 28.6908 28.1218C20.1531 23.5 19.962 23.3796 20.1879 22.7607C20.4464 22.0529 21.7687 21.061 24.4017 19.5999C26.6673 18.3427 31.0034 15.26 31.899 14.27C32.2103 13.9259 33.3597 13.1333 34.4527 12.5085C37.0555 11.0214 37.7546 11.1363 41.7159 13.7016C46.1815 16.594 46.234 16.7209 44.0386 19.3216C41.3823 22.468 40.291 26.6614 40.9543 31.1729C41.3662 33.9763 42.2737 35.254 44.9498 36.799C48.1678 38.6569 50.2364 38.7512 53.5551 37.1906C56.5729 35.772 58.3543 34.1113 60.0729 31.1147C61.3403 28.9041 61.5519 28.3223 61.74 26.5296C61.9512 24.5154 61.4288 20.775 60.6492 18.7148C60.2563 17.6769 60.2058 17.6448 45.8414 9.28262C31.4781 0.920721 31.423 0.891517 29.8877 0.824746C28.6603 0.771373 28.0978 0.954321 27.1215 1.72329C26.4475 2.25449 25.7881 2.81361 25.656 2.96574C24.6389 4.13911 17.8701 8.88617 15.3591 10.1874C14.8055 10.4743 14.1774 10.8673 13.9633 11.0609C13.4187 11.5529 8.04001 14.1644 5.64712 15.0984C2.84344 16.1924 2.58555 16.3195 1.83299 16.975C0.928577 17.763 0.766753 18.1211 0.975231 18.8728Z" fill="#0057FF"/>
</svg>
