<svg width="28" height="14" viewBox="0 0 28 14" fill="none" xmlns="http://www.w3.org/2000/svg">
<g clip-path="url(#clip0_842_8)">
<rect width="28" height="14" fill="var(--bg)"/>
<mask id="path-1-outside-1_842_8" maskUnits="userSpaceOnUse" x="13" y="0" width="15" height="14" fill="black">
<rect fill="var(--bg)" x="13" width="15" height="14"/>
<path d="M21.7961 0.999999L21.2961 5.8L26.0961 4.45L26.4461 6.75L21.8461 7.125L24.8211 11.075L22.6711 12.25L20.5461 7.875L18.6211 12.25L16.3961 11.075L19.3211 7.125L14.7711 6.75L15.1211 4.45L19.8711 5.8L19.3461 0.999999H21.7961Z"/>
</mask>
<path d="M21.7961 0.999999L21.2961 5.8L26.0961 4.45L26.4461 6.75L21.8461 7.125L24.8211 11.075L22.6711 12.25L20.5461 7.875L18.6211 12.25L16.3961 11.075L19.3211 7.125L14.7711 6.75L15.1211 4.45L19.8711 5.8L19.3461 0.999999H21.7961Z" fill="#0057FF"/>
<path d="M21.7961 0.999999L22.7907 1.1036L22.9057 -1.2517e-06H21.7961V0.999999ZM21.2961 5.8L20.3015 5.69639L20.1489 7.16146L21.5668 6.76265L21.2961 5.8ZM26.0961 4.45L27.0847 4.29956L26.9145 3.18102L25.8253 3.48735L26.0961 4.45ZM26.4461 6.75L26.5273 7.74669L27.596 7.65957L27.4347 6.59956L26.4461 6.75ZM21.8461 7.125L21.7648 6.12831L19.9547 6.27587L21.0473 7.72662L21.8461 7.125ZM24.8211 11.075L25.3007 11.9525L26.316 11.3976L25.6199 10.4734L24.8211 11.075ZM22.6711 12.25L21.7716 12.6869L22.23 13.6307L23.1507 13.1275L22.6711 12.25ZM20.5461 7.875L21.4456 7.4381L20.5013 5.49388L19.6308 7.47226L20.5461 7.875ZM18.6211 12.25L18.1541 13.1343L19.1039 13.6358L19.5364 12.6527L18.6211 12.25ZM16.3961 11.075L15.5924 10.4799L14.8996 11.4156L15.9291 11.9593L16.3961 11.075ZM19.3211 7.125L20.1247 7.7201L21.1941 6.27598L19.4032 6.12838L19.3211 7.125ZM14.7711 6.75L13.7825 6.59956L13.6213 7.65863L14.689 7.74662L14.7711 6.75ZM15.1211 4.45L15.3945 3.48809L14.3032 3.17793L14.1325 4.29956L15.1211 4.45ZM19.8711 5.8L19.5977 6.7619L21.0267 7.16803L20.8652 5.69127L19.8711 5.8ZM19.3461 0.999999V-1.2517e-06H18.2308L18.352 1.10873L19.3461 0.999999ZM20.8015 0.896393L20.3015 5.69639L22.2907 5.90361L22.7907 1.1036L20.8015 0.896393ZM21.5668 6.76265L26.3668 5.41265L25.8253 3.48735L21.0253 4.83735L21.5668 6.76265ZM25.1075 4.60044L25.4575 6.90044L27.4347 6.59956L27.0847 4.29956L25.1075 4.60044ZM26.3648 5.75331L21.7648 6.12831L21.9273 8.12169L26.5273 7.74669L26.3648 5.75331ZM21.0473 7.72662L24.0223 11.6766L25.6199 10.4734L22.6449 6.52338L21.0473 7.72662ZM24.3415 10.1975L22.1915 11.3725L23.1507 13.1275L25.3007 11.9525L24.3415 10.1975ZM23.5706 11.8131L21.4456 7.4381L19.6466 8.3119L21.7716 12.6869L23.5706 11.8131ZM19.6308 7.47226L17.7058 11.8473L19.5364 12.6527L21.4614 8.27774L19.6308 7.47226ZM19.0881 11.3657L16.8631 10.1907L15.9291 11.9593L18.1541 13.1343L19.0881 11.3657ZM17.1997 11.6701L20.1247 7.7201L18.5174 6.52989L15.5924 10.4799L17.1997 11.6701ZM19.4032 6.12838L14.8532 5.75338L14.689 7.74662L19.239 8.12162L19.4032 6.12838ZM15.7597 6.90044L16.1097 4.60044L14.1325 4.29956L13.7825 6.59956L15.7597 6.90044ZM14.8477 5.4119L19.5977 6.7619L20.1445 4.83809L15.3945 3.48809L14.8477 5.4119ZM20.8652 5.69127L20.3402 0.891272L18.352 1.10873L18.877 5.90873L20.8652 5.69127ZM19.3461 2H21.7961V-1.2517e-06H19.3461V2Z" fill="#0057FF" mask="url(#path-1-outside-1_842_8)"/>
</g>
<defs>
<clipPath id="clip0_842_8">
<rect width="28" height="14" fill="var(--bg)"/>
</clipPath>
</defs>
</svg>
