<svg width="14" height="28" viewBox="0 0 14 28" fill="none" xmlns="http://www.w3.org/2000/svg">
<g clip-path="url(#clip0_841_6)">
<rect width="28" height="14" transform="matrix(0 1 -1 0 14 0)" fill="var(--bg)"/>
<mask id="path-1-outside-1_841_6" maskUnits="userSpaceOnUse" x="0" y="-15" width="14" height="29" fill="black">
<rect fill="var(--bg)" y="-15" width="14" height="29"/>
<path d="M13 -5.95L8.2 -6.45L9.55 -1.65L7.25 -1.3L6.875 -5.9L2.925 -2.925L1.75 -5.075L6.125 -7.2L1.75 -9.125L2.925 -11.35L6.875 -8.425L7.25 -12.975L9.55 -12.625L8.2 -7.875L13 -8.4V-5.95ZM13 7.81953L8.2 7.31953L9.55 12.1195L7.25 12.4695L6.875 7.86953L2.925 10.8445L1.75 8.69453L6.125 6.56953L1.75 4.64453L2.925 2.41953L6.875 5.34453L7.25 0.794531L9.55 1.14453L8.2 5.89453L13 5.36953V7.81953Z"/>
</mask>
<path d="M13 -5.95L8.2 -6.45L9.55 -1.65L7.25 -1.3L6.875 -5.9L2.925 -2.925L1.75 -5.075L6.125 -7.2L1.75 -9.125L2.925 -11.35L6.875 -8.425L7.25 -12.975L9.55 -12.625L8.2 -7.875L13 -8.4V-5.95ZM13 7.81953L8.2 7.31953L9.55 12.1195L7.25 12.4695L6.875 7.86953L2.925 10.8445L1.75 8.69453L6.125 6.56953L1.75 4.64453L2.925 2.41953L6.875 5.34453L7.25 0.794531L9.55 1.14453L8.2 5.89453L13 5.36953V7.81953Z" fill="#0057FF"/>
<path d="M13 -5.95L12.8964 -4.95538L14 -4.84042V-5.95H13ZM8.2 -6.45L8.30361 -7.44462L6.83854 -7.59723L7.23735 -6.17925L8.2 -6.45ZM9.55 -1.65L9.70044 -0.661381L10.819 -0.831592L10.5127 -1.92075L9.55 -1.65ZM7.25 -1.3L6.25331 -1.21875L6.34043 -0.150074L7.40044 -0.311381L7.25 -1.3ZM6.875 -5.9L7.87169 -5.98125L7.72413 -7.79143L6.27338 -6.69878L6.875 -5.9ZM2.925 -2.925L2.0475 -2.44543L2.60238 -1.43011L3.52662 -2.12621L2.925 -2.925ZM1.75 -5.075L1.3131 -5.97451L0.369334 -5.51611L0.872495 -4.59543L1.75 -5.075ZM6.125 -7.2L6.5619 -6.30049L8.50612 -7.24483L6.52774 -8.11531L6.125 -7.2ZM1.75 -9.125L0.865729 -9.59197L0.364183 -8.64224L1.34726 -8.20968L1.75 -9.125ZM2.925 -11.35L3.52011 -12.1536L2.58443 -12.8465L2.04073 -11.817L2.925 -11.35ZM6.875 -8.425L6.2799 -7.62135L7.72402 -6.55197L7.87162 -8.34286L6.875 -8.425ZM7.25 -12.975L7.40044 -13.9636L6.34137 -14.1248L6.25338 -13.0571L7.25 -12.975ZM9.55 -12.625L10.5119 -12.3516L10.8221 -13.4429L9.70044 -13.6136L9.55 -12.625ZM8.2 -7.875L7.2381 -8.14838L6.83197 -6.71941L8.30873 -6.88093L8.2 -7.875ZM13 -8.4H14V-9.51534L12.8913 -9.39407L13 -8.4ZM13.1036 -6.94462L8.30361 -7.44462L8.09639 -5.45538L12.8964 -4.95538L13.1036 -6.94462ZM7.23735 -6.17925L8.58735 -1.37925L10.5127 -1.92075L9.16265 -6.72075L7.23735 -6.17925ZM9.39956 -2.63862L7.09956 -2.28862L7.40044 -0.311381L9.70044 -0.661381L9.39956 -2.63862ZM8.24669 -1.38125L7.87169 -5.98125L5.87831 -5.81875L6.25331 -1.21875L8.24669 -1.38125ZM6.27338 -6.69878L2.32338 -3.72378L3.52662 -2.12621L7.47662 -5.10121L6.27338 -6.69878ZM3.80251 -3.40457L2.62751 -5.55457L0.872495 -4.59543L2.0475 -2.44543L3.80251 -3.40457ZM2.1869 -4.17549L6.5619 -6.30049L5.6881 -8.09951L1.3131 -5.97451L2.1869 -4.17549ZM6.52774 -8.11531L2.15274 -10.0403L1.34726 -8.20968L5.72226 -6.28468L6.52774 -8.11531ZM2.63427 -8.65803L3.80927 -10.883L2.04073 -11.817L0.865729 -9.59197L2.63427 -8.65803ZM2.32989 -10.5464L6.2799 -7.62135L7.47011 -9.22865L3.52011 -12.1536L2.32989 -10.5464ZM7.87162 -8.34286L8.24662 -12.8929L6.25338 -13.0571L5.87838 -8.50714L7.87162 -8.34286ZM7.09956 -11.9864L9.39956 -11.6364L9.70044 -13.6136L7.40044 -13.9636L7.09956 -11.9864ZM8.5881 -12.8984L7.2381 -8.14838L9.16191 -7.60162L10.5119 -12.3516L8.5881 -12.8984ZM8.30873 -6.88093L13.1087 -7.40593L12.8913 -9.39407L8.09127 -8.86907L8.30873 -6.88093ZM12 -8.4V-5.95H14V-8.4H12ZM13 7.81953L12.8964 8.81415L14 8.92911V7.81953H13ZM8.2 7.31953L8.30361 6.32491L6.83854 6.1723L7.23735 7.59028L8.2 7.31953ZM9.55 12.1195L9.70044 13.1082L10.819 12.9379L10.5127 11.8488L9.55 12.1195ZM7.25 12.4695L6.25331 12.5508L6.34043 13.6195L7.40044 13.4582L7.25 12.4695ZM6.875 7.86953L7.87169 7.78828L7.72413 5.9781L6.27338 7.07075L6.875 7.86953ZM2.925 10.8445L2.0475 11.3241L2.60238 12.3394L3.52662 11.6433L2.925 10.8445ZM1.75 8.69453L1.3131 7.79502L0.369334 8.25342L0.872495 9.1741L1.75 8.69453ZM6.125 6.56953L6.5619 7.46904L8.50612 6.52471L6.52774 5.65422L6.125 6.56953ZM1.75 4.64453L0.865729 4.17756L0.364183 5.12729L1.34726 5.55985L1.75 4.64453ZM2.925 2.41953L3.52011 1.61588L2.58443 0.923006L2.04073 1.95256L2.925 2.41953ZM6.875 5.34453L6.2799 6.14818L7.72402 7.21756L7.87162 5.42667L6.875 5.34453ZM7.25 0.794531L7.40044 -0.194088L6.34137 -0.35525L6.25338 0.712392L7.25 0.794531ZM9.55 1.14453L10.5119 1.41791L10.8221 0.326595L9.70044 0.155913L9.55 1.14453ZM8.2 5.89453L7.2381 5.62115L6.83197 7.05012L8.30873 6.8886L8.2 5.89453ZM13 5.36953H14V4.25419L12.8913 4.37546L13 5.36953ZM13.1036 6.82491L8.30361 6.32491L8.09639 8.31415L12.8964 8.81415L13.1036 6.82491ZM7.23735 7.59028L8.58735 12.3903L10.5127 11.8488L9.16265 7.04879L7.23735 7.59028ZM9.39956 11.1309L7.09956 11.4809L7.40044 13.4582L9.70044 13.1082L9.39956 11.1309ZM8.24669 12.3883L7.87169 7.78828L5.87831 7.95078L6.25331 12.5508L8.24669 12.3883ZM6.27338 7.07075L2.32338 10.0457L3.52662 11.6433L7.47662 8.66832L6.27338 7.07075ZM3.80251 10.365L2.62751 8.21496L0.872495 9.1741L2.0475 11.3241L3.80251 10.365ZM2.1869 9.59404L6.5619 7.46904L5.6881 5.67002L1.3131 7.79502L2.1869 9.59404ZM6.52774 5.65422L2.15274 3.72922L1.34726 5.55985L5.72226 7.48485L6.52774 5.65422ZM2.63427 5.11151L3.80927 2.88651L2.04073 1.95256L0.865729 4.17756L2.63427 5.11151ZM2.32989 3.22318L6.2799 6.14818L7.47011 4.54088L3.52011 1.61588L2.32989 3.22318ZM7.87162 5.42667L8.24662 0.87667L6.25338 0.712392L5.87838 5.26239L7.87162 5.42667ZM7.09956 1.78315L9.39956 2.13315L9.70044 0.155913L7.40044 -0.194088L7.09956 1.78315ZM8.5881 0.871148L7.2381 5.62115L9.16191 6.16792L10.5119 1.41791L8.5881 0.871148ZM8.30873 6.8886L13.1087 6.3636L12.8913 4.37546L8.09127 4.90046L8.30873 6.8886ZM12 5.36953V7.81953H14V5.36953H12Z" fill="#0057FF" mask="url(#path-1-outside-1_841_6)"/>
</g>
<defs>
<clipPath id="clip0_841_6">
<rect width="28" height="14" fill="var(--bg)" transform="matrix(0 1 -1 0 14 0)"/>
</clipPath>
</defs>
</svg>
