<svg width="14" height="28" viewBox="0 0 14 28" fill="none" xmlns="http://www.w3.org/2000/svg">
<g clip-path="url(#clip0_842_10)">
<rect width="28" height="14" transform="matrix(0 -1 1 0 0 28)" fill="white"/>
<mask id="path-1-outside-1_842_10" maskUnits="userSpaceOnUse" x="0" y="14" width="14" height="29" fill="black">
<rect fill="white" y="14" width="14" height="29"/>
<path d="M0.999999 33.95L5.8 34.45L4.45 29.65L6.75 29.3L7.125 33.9L11.075 30.925L12.25 33.075L7.875 35.2L12.25 37.125L11.075 39.35L7.125 36.425L6.75 40.975L4.45 40.625L5.8 35.875L0.999999 36.4V33.95ZM0.999999 20.1805L5.8 20.6805L4.45 15.8805L6.75 15.5305L7.125 20.1305L11.075 17.1555L12.25 19.3055L7.875 21.4305L12.25 23.3555L11.075 25.5805L7.125 22.6555L6.75 27.2055L4.45 26.8555L5.8 22.1055L0.999999 22.6305V20.1805Z"/>
</mask>
<path d="M0.999999 33.95L5.8 34.45L4.45 29.65L6.75 29.3L7.125 33.9L11.075 30.925L12.25 33.075L7.875 35.2L12.25 37.125L11.075 39.35L7.125 36.425L6.75 40.975L4.45 40.625L5.8 35.875L0.999999 36.4V33.95ZM0.999999 20.1805L5.8 20.6805L4.45 15.8805L6.75 15.5305L7.125 20.1305L11.075 17.1555L12.25 19.3055L7.875 21.4305L12.25 23.3555L11.075 25.5805L7.125 22.6555L6.75 27.2055L4.45 26.8555L5.8 22.1055L0.999999 22.6305V20.1805Z" fill="#0057FF"/>
<path d="M0.999999 33.95L1.1036 32.9554L-1.2517e-06 32.8404L-1.2517e-06 33.95H0.999999ZM5.8 34.45L5.69639 35.4446L7.16146 35.5972L6.76265 34.1793L5.8 34.45ZM4.45 29.65L4.29956 28.6614L3.18102 28.8316L3.48735 29.9207L4.45 29.65ZM6.75 29.3L7.74669 29.2187L7.65957 28.1501L6.59956 28.3114L6.75 29.3ZM7.125 33.9L6.12831 33.9813L6.27587 35.7914L7.72662 34.6988L7.125 33.9ZM11.075 30.925L11.9525 30.4454L11.3976 29.4301L10.4734 30.1262L11.075 30.925ZM12.25 33.075L12.6869 33.9745L13.6307 33.5161L13.1275 32.5954L12.25 33.075ZM7.875 35.2L7.4381 34.3005L5.49388 35.2448L7.47226 36.1153L7.875 35.2ZM12.25 37.125L13.1343 37.592L13.6358 36.6422L12.6527 36.2097L12.25 37.125ZM11.075 39.35L10.4799 40.1536L11.4156 40.8465L11.9593 39.817L11.075 39.35ZM7.125 36.425L7.7201 35.6214L6.27598 34.552L6.12838 36.3429L7.125 36.425ZM6.75 40.975L6.59956 41.9636L7.65863 42.1248L7.74662 41.0571L6.75 40.975ZM4.45 40.625L3.48809 40.3516L3.17793 41.4429L4.29956 41.6136L4.45 40.625ZM5.8 35.875L6.7619 36.1484L7.16803 34.7194L5.69127 34.8809L5.8 35.875ZM0.999999 36.4H-1.2517e-06L-1.2517e-06 37.5153L1.10873 37.3941L0.999999 36.4ZM0.896393 34.9446L5.69639 35.4446L5.90361 33.4554L1.1036 32.9554L0.896393 34.9446ZM6.76265 34.1793L5.41265 29.3793L3.48735 29.9207L4.83735 34.7207L6.76265 34.1793ZM4.60044 30.6386L6.90044 30.2886L6.59956 28.3114L4.29956 28.6614L4.60044 30.6386ZM5.75331 29.3813L6.12831 33.9813L8.12169 33.8187L7.74669 29.2187L5.75331 29.3813ZM7.72662 34.6988L11.6766 31.7238L10.4734 30.1262L6.52338 33.1012L7.72662 34.6988ZM10.1975 31.4046L11.3725 33.5546L13.1275 32.5954L11.9525 30.4454L10.1975 31.4046ZM11.8131 32.1755L7.4381 34.3005L8.3119 36.0995L12.6869 33.9745L11.8131 32.1755ZM7.47226 36.1153L11.8473 38.0403L12.6527 36.2097L8.27774 34.2847L7.47226 36.1153ZM11.3657 36.658L10.1907 38.883L11.9593 39.817L13.1343 37.592L11.3657 36.658ZM11.6701 38.5464L7.7201 35.6214L6.52989 37.2286L10.4799 40.1536L11.6701 38.5464ZM6.12838 36.3429L5.75338 40.8929L7.74662 41.0571L8.12162 36.5071L6.12838 36.3429ZM6.90044 39.9864L4.60044 39.6364L4.29956 41.6136L6.59956 41.9636L6.90044 39.9864ZM5.4119 40.8984L6.7619 36.1484L4.83809 35.6016L3.48809 40.3516L5.4119 40.8984ZM5.69127 34.8809L0.891272 35.4059L1.10873 37.3941L5.90873 36.8691L5.69127 34.8809ZM2 36.4V33.95H-1.2517e-06V36.4H2ZM0.999999 20.1805L1.1036 19.1858L-1.2517e-06 19.0709V20.1805H0.999999ZM5.8 20.6805L5.69639 21.6751L7.16146 21.8277L6.76265 20.4097L5.8 20.6805ZM4.45 15.8805L4.29956 14.8918L3.18102 15.0621L3.48735 16.1512L4.45 15.8805ZM6.75 15.5305L7.74669 15.4492L7.65957 14.3805L6.59956 14.5418L6.75 15.5305ZM7.125 20.1305L6.12831 20.2117L6.27587 22.0219L7.72662 20.9293L7.125 20.1305ZM11.075 17.1555L11.9525 16.6759L11.3976 15.6606L10.4734 16.3567L11.075 17.1555ZM12.25 19.3055L12.6869 20.205L13.6307 19.7466L13.1275 18.8259L12.25 19.3055ZM7.875 21.4305L7.4381 20.531L5.49388 21.4753L7.47226 22.3458L7.875 21.4305ZM12.25 23.3555L13.1343 23.8224L13.6358 22.8727L12.6527 22.4402L12.25 23.3555ZM11.075 25.5805L10.4799 26.3841L11.4156 27.077L11.9593 26.0474L11.075 25.5805ZM7.125 22.6555L7.7201 21.8518L6.27598 20.7824L6.12838 22.5733L7.125 22.6555ZM6.75 27.2055L6.59956 28.1941L7.65863 28.3553L7.74662 27.2876L6.75 27.2055ZM4.45 26.8555L3.48809 26.5821L3.17793 27.6734L4.29956 27.8441L4.45 26.8555ZM5.8 22.1055L6.7619 22.3789L7.16803 20.9499L5.69127 21.1114L5.8 22.1055ZM0.999999 22.6305H-1.2517e-06V23.7458L1.10873 23.6245L0.999999 22.6305ZM0.896393 21.1751L5.69639 21.6751L5.90361 19.6858L1.1036 19.1858L0.896393 21.1751ZM6.76265 20.4097L5.41265 15.6097L3.48735 16.1512L4.83735 20.9512L6.76265 20.4097ZM4.60044 16.8691L6.90044 16.5191L6.59956 14.5418L4.29956 14.8918L4.60044 16.8691ZM5.75331 15.6117L6.12831 20.2117L8.12169 20.0492L7.74669 15.4492L5.75331 15.6117ZM7.72662 20.9293L11.6766 17.9543L10.4734 16.3567L6.52338 19.3317L7.72662 20.9293ZM10.1975 17.635L11.3725 19.785L13.1275 18.8259L11.9525 16.6759L10.1975 17.635ZM11.8131 18.406L7.4381 20.531L8.3119 22.33L12.6869 20.205L11.8131 18.406ZM7.47226 22.3458L11.8473 24.2708L12.6527 22.4402L8.27774 20.5152L7.47226 22.3458ZM11.3657 22.8885L10.1907 25.1135L11.9593 26.0474L13.1343 23.8224L11.3657 22.8885ZM11.6701 24.7768L7.7201 21.8518L6.52989 23.4591L10.4799 26.3841L11.6701 24.7768ZM6.12838 22.5733L5.75338 27.1233L7.74662 27.2876L8.12162 22.7376L6.12838 22.5733ZM6.90044 26.2168L4.60044 25.8668L4.29956 27.8441L6.59956 28.1941L6.90044 26.2168ZM5.4119 27.1289L6.7619 22.3789L4.83809 21.8321L3.48809 26.5821L5.4119 27.1289ZM5.69127 21.1114L0.891272 21.6364L1.10873 23.6245L5.90873 23.0995L5.69127 21.1114ZM2 22.6305V20.1805H-1.2517e-06L-1.2517e-06 22.6305H2Z" fill="#0057FF" mask="url(#path-1-outside-1_842_10)"/>
</g>
<defs>
<clipPath id="clip0_842_10">
<rect width="28" height="14" fill="white" transform="matrix(0 -1 1 0 0 28)"/>
</clipPath>
</defs>
</svg>
